<svg width="152" height="48" viewBox="0 0 152 48" fill="none" xmlns="http://www.w3.org/2000/svg">
<path d="M9.70117 27.8496C9.59863 27.7881 9.49609 27.7471 9.41406 27.7266C9.33203 27.7061 9.27051 27.7061 9.20898 27.6855C9.12695 27.6855 9.06543 27.665 8.9834 27.6445C8.90137 27.624 8.81934 27.5625 8.69629 27.501C8.59375 27.4189 8.4502 27.3164 8.28613 27.1523C7.97852 26.8242 7.65039 26.5371 7.28125 26.2705C6.52246 25.7373 5.74316 25.0811 4.92285 24.3223C4.12305 23.543 3.4873 22.7842 3.03613 22.0049C2.13379 20.4873 1.84668 18.8877 2.11328 17.1855C2.31836 15.9346 2.76953 14.7656 3.4668 13.6582C5.70215 10.418 8.65527 8.08008 12.3467 6.64453C13.0645 6.31641 13.8027 6.0498 14.5615 5.86523C14.623 5.86523 14.6641 5.84473 14.7051 5.84473C14.9717 5.7832 15.2383 5.74219 15.5459 5.68066C15.8535 5.61914 16.1201 5.55762 16.3457 5.5166C17.8428 5.27051 19.2373 5.53711 20.5088 6.2959C21.4727 6.91113 22.3955 7.75195 23.3389 8.81836C24.2617 9.88477 24.5898 11.0332 24.3027 12.2637C24.2617 12.2842 24.2207 12.2227 24.1797 12.1201C24.1387 11.9971 24.0977 11.8945 24.0566 11.751C24.0361 11.6484 23.9951 11.5664 23.9746 11.5049C23.9541 11.4229 23.9336 11.3818 23.9131 11.3818C23.8926 11.3613 23.8721 11.4023 23.8516 11.4844C23.8311 11.5664 23.8105 11.7305 23.79 11.9355C23.749 12.3047 23.5439 12.7559 23.1953 13.248C22.8467 13.7607 22.5186 14.1914 22.2109 14.5605C22.1494 14.6221 22.1084 14.6836 22.0469 14.7451C22.0059 14.8271 21.9443 14.8887 21.9033 14.9502C21.7393 15.1553 21.5957 15.3193 21.4932 15.4834C21.3701 15.627 21.2471 15.8115 21.1035 16.0576C20.9189 16.3037 20.6934 16.5703 20.4473 16.8574C20.1807 17.1445 19.9551 17.4316 19.75 17.7393C19.6885 17.8418 19.6064 17.9648 19.5039 18.1289C19.3193 18.3955 19.1143 18.7031 18.8887 19.0723C18.6426 19.4209 18.417 19.7285 18.1914 19.9951C17.9863 20.2822 17.8018 20.4463 17.6582 20.4873C17.6377 20.4873 17.6172 20.4873 17.5967 20.4873C17.5762 20.4668 17.5762 20.4668 17.5557 20.4668C17.5557 20.4668 17.5557 20.4463 17.5352 20.4463C17.5352 20.4463 17.5352 20.4463 17.5557 20.4668V20.4873C17.5557 20.5078 17.5557 20.5283 17.5352 20.5488C17.5352 20.5693 17.5352 20.5898 17.5146 20.6104C17.5146 20.6514 17.4941 20.6719 17.4736 20.7129C17.4531 20.7539 17.4326 20.7949 17.4121 20.8359C17.3506 20.959 17.2686 21.0615 17.1865 21.123C17.125 21.1846 17.0635 21.2666 16.9814 21.3691C16.9199 21.4512 16.8379 21.6152 16.7559 21.8203C16.7354 21.8613 16.7148 21.9229 16.6738 21.9844C16.6123 22.1689 16.5098 22.3945 16.4072 22.6201C16.3047 22.8662 16.1816 23.0508 16.0586 23.1943C15.9355 23.3584 15.8125 23.3994 15.6895 23.3379C15.5459 23.2764 15.4434 23.0303 15.3408 22.6201C15.2588 22.3535 15.1973 22.1689 15.1562 22.0459C15.1152 21.9023 15.0537 21.8408 15.0332 21.7998C14.9922 21.7793 14.9717 21.7793 14.9307 21.7998C14.9102 21.8203 14.8896 21.8613 14.8691 21.9023C14.8486 21.9434 14.8076 21.9844 14.7871 22.0049C14.7666 22.0254 14.7461 22.0254 14.7051 21.9844C14.6846 21.9434 14.6436 21.8613 14.6025 21.7178C14.377 20.7744 14.459 19.9541 14.8691 19.2568C15.2793 18.5596 15.792 17.8828 16.4277 17.2471C16.6123 17.042 16.8174 16.8164 17.002 16.6113C17.207 16.3857 17.3916 16.1807 17.5762 15.9551C17.9658 15.5244 18.3555 15.0732 18.7246 14.6221C18.8271 14.499 18.9502 14.376 19.0527 14.2324C19.668 13.5762 20.2832 12.7764 20.8779 11.874C21.4727 10.9717 21.6777 10.1514 21.5137 9.37207C21.4111 9.24902 21.2881 9.14648 21.165 9.04395C21.124 9.02344 21.1035 9.00293 21.083 8.98242C20.7959 8.77734 20.5703 8.6543 20.4062 8.61328C20.2627 8.57227 20.1191 8.55176 19.9551 8.57227C19.791 8.59277 19.5039 8.57227 19.1143 8.49023C18.9707 8.46973 18.8682 8.44922 18.8066 8.44922C18.7451 8.44922 18.6836 8.46973 18.6631 8.46973C18.6221 8.49023 18.6016 8.51074 18.5811 8.53125C18.5811 8.55176 18.5605 8.55176 18.54 8.57227C18.5195 8.57227 18.4785 8.59277 18.4375 8.57227C18.3965 8.57227 18.335 8.57227 18.2324 8.53125C18.1504 8.51074 18.0479 8.46973 17.9043 8.4082C17.8018 8.36719 17.7197 8.34668 17.6582 8.34668C17.5967 8.34668 17.5557 8.34668 17.5146 8.36719C17.4736 8.3877 17.4531 8.4082 17.4121 8.42871C17.3711 8.49023 17.2891 8.53125 17.166 8.57227C17.0635 8.61328 16.8994 8.63379 16.6533 8.61328C16.3662 8.61328 16.1816 8.61328 16.0381 8.6748C15.915 8.71582 15.792 8.75684 15.6895 8.83887C15.6074 8.90039 15.5049 8.94141 15.3818 9.00293C15.2588 9.06445 15.0947 9.12598 14.8896 9.1875C14.7256 9.22852 14.6025 9.26953 14.4795 9.29004C14.2539 9.33105 14.0693 9.39258 13.9053 9.4541C13.7207 9.51562 13.5156 9.63867 13.2285 9.82324C13.1055 9.88477 12.9824 9.92578 12.8594 9.94629C12.7158 9.94629 12.5723 10.0078 12.3877 10.0693C11.8545 10.3359 11.4443 10.6025 11.1162 10.8281C10.8086 11.0742 10.4805 11.3408 10.1318 11.6484C9.96777 11.792 9.7832 11.9561 9.57812 12.1201C9.31152 12.3457 9.10645 12.4893 8.92188 12.5918C8.77832 12.6943 8.63477 12.7969 8.4707 12.9199C8.30664 13.043 8.10156 13.248 7.87598 13.5352C7.75293 13.6787 7.6709 13.7812 7.60938 13.8633C7.54785 13.9248 7.48633 13.9863 7.4248 14.0273C7.36328 14.0684 7.30176 14.1299 7.19922 14.1914C7.1377 14.2324 7.03516 14.2939 6.93262 14.376C6.85059 14.458 6.78906 14.499 6.74805 14.5605C6.70703 14.6016 6.68652 14.6426 6.68652 14.6631C6.68652 14.7041 6.68652 14.7451 6.68652 14.7656C6.70703 14.8066 6.70703 14.8477 6.70703 14.8887C6.68652 14.9297 6.66602 14.9912 6.625 15.0527C6.58398 15.1143 6.50195 15.1963 6.37891 15.2988C6.07129 15.6064 5.8457 15.9961 5.70215 16.4268C5.64062 16.5703 5.5791 16.7139 5.51758 16.8574C4.82031 18.252 4.61523 19.4619 4.90234 20.4873C5.18945 21.5127 5.8252 22.5586 6.83008 23.584C7.87598 24.6299 9.00391 25.5732 10.2549 26.3936C11.4648 27.1729 12.7158 27.8906 14.0078 28.5674C15.2383 29.2236 16.4482 29.9209 17.5967 30.6592C18.5605 31.377 19.2373 32.1152 19.627 32.8945C20.0371 33.6738 20.2217 34.6787 20.1807 35.9092C20.0986 36.9961 19.668 37.7754 18.9092 38.2676C18.1299 38.7393 17.248 39.1084 16.3047 39.3545C16.1201 39.416 15.8535 39.498 15.4844 39.5801C15.1357 39.6621 14.7871 39.7236 14.4385 39.7441C14.0898 39.7646 13.8438 39.7031 13.7002 39.5801C13.6387 39.5186 13.6182 39.4775 13.6387 39.457C13.6592 39.416 13.7207 39.3955 13.8027 39.3545C13.8232 39.334 13.8643 39.3135 13.8848 39.3135C14.2744 39.1494 14.7871 39.0059 15.4229 38.8623C15.8535 38.7598 16.2432 38.6367 16.5918 38.5342C16.8379 38.4521 17.1865 38.3291 17.6377 38.165C18.0889 38.001 18.54 37.7959 18.9502 37.5908C19.3809 37.3652 19.6475 37.1602 19.7705 36.9756L19.791 36.7705C19.6475 36.791 19.4629 36.873 19.2373 36.9756C19.0117 37.0986 18.7656 37.2217 18.54 37.3652C18.2529 37.5293 18.0273 37.6523 17.8223 37.7344C15.8945 38.6367 14.2129 39.0469 12.7979 39.0059C11.3828 38.9648 9.72168 38.6777 7.79395 38.1445C6.91211 37.8779 5.90723 37.4473 4.7998 36.8115C3.67188 36.1758 2.81055 35.54 2.19531 34.8633C2.52344 35.499 2.9541 36.0527 3.52832 36.5244C4.10254 37.0166 4.69727 37.4268 5.3125 37.8164C5.49707 37.9189 5.62012 38.0215 5.68164 38.1035C5.76367 38.2061 5.74316 38.2676 5.62012 38.3086C3.89746 37.6523 2.50293 36.627 1.39551 35.2324C0.288086 33.8379 0.000976562 32.2383 0.53418 30.4746C0.698242 30.0234 0.841797 29.7979 0.964844 29.7568C1.08789 29.7158 1.19043 29.7979 1.27246 30.0029C1.375 30.1875 1.45703 30.4336 1.51855 30.7002C1.58008 30.9053 1.66211 31.0898 1.72363 31.2539C2.31836 32.4844 3.30273 33.4482 4.61523 34.1045C5.94824 34.7607 7.28125 35.2939 8.59375 35.6631C9.82422 36.0117 10.9316 36.2373 11.916 36.3193C12.9004 36.4219 14.0488 36.3809 15.3408 36.1963C15.751 36.1553 16.2432 36.0732 16.8174 35.9297C17.3711 35.7861 17.8428 35.5605 18.1914 35.2529C18.54 34.9248 18.6016 34.4736 18.376 33.8789C18.0889 33.3252 17.5352 32.7715 16.7354 32.2588C15.9355 31.7461 15.1768 31.2949 14.4385 30.9258C14.1924 30.7822 13.9668 30.6797 13.7822 30.5566L13.5771 30.4541L13.3926 30.3311C12.8184 29.9824 12.2031 29.6748 11.5674 29.3877C11.3213 29.2646 11.1162 29.1416 10.9521 29.0186C10.7881 28.875 10.6445 28.7314 10.5215 28.5879C10.3369 28.3418 10.0498 28.1162 9.70117 27.8496ZM4.16406 15.4014C4.20508 14.9912 4.16406 14.8271 4.04102 14.8887C3.91797 14.9502 3.77441 15.1553 3.65137 15.4834C3.52832 15.791 3.40527 16.0576 3.30273 16.2832C3.15918 16.6113 3.03613 16.9395 2.93359 17.2676C2.85156 17.5957 2.81055 18.0264 2.81055 18.5801C2.87207 19.585 3.03613 19.6055 3.30273 18.6211C3.38477 18.2725 3.42578 17.9648 3.4668 17.6982C3.52832 17.3906 3.58984 17.083 3.67188 16.7959C3.7334 16.4883 3.87695 16.1191 4.06152 15.6885L4.16406 15.4014ZM4.84082 14.2734C4.88184 14.1504 4.86133 14.0684 4.7998 13.9863C4.73828 13.9248 4.65625 13.8633 4.55371 13.8633C4.47168 13.8428 4.38965 13.8633 4.34863 13.9248C4.28711 13.9863 4.28711 14.0684 4.34863 14.2119C4.41016 14.335 4.47168 14.417 4.57422 14.4375C4.65625 14.458 4.75879 14.3965 4.84082 14.2734ZM5.5791 12.9609C5.51758 12.8379 5.47656 12.7764 5.39453 12.7764C5.3125 12.7969 5.25098 12.8174 5.20996 12.8994C5.14844 12.9609 5.12793 13.043 5.14844 13.125C5.16895 13.207 5.25098 13.2686 5.39453 13.3301C5.47656 13.3506 5.51758 13.3301 5.55859 13.2891C5.5791 13.248 5.59961 13.1865 5.59961 13.125C5.59961 13.0635 5.5791 13.002 5.5791 12.9609ZM6.0918 12.3047C6.03027 12.3662 6.00977 12.4277 6.03027 12.5098C6.03027 12.6123 6.07129 12.6738 6.13281 12.7354C6.17383 12.8174 6.23535 12.8379 6.27637 12.8379C6.33789 12.8379 6.37891 12.7764 6.39941 12.6533C6.41992 12.5508 6.37891 12.4688 6.33789 12.3867C6.27637 12.3252 6.19434 12.2842 6.0918 12.3047ZM7.58887 11.6895C7.69141 11.7715 7.77344 11.7715 7.85547 11.6895C7.9375 11.6074 7.97852 11.4844 7.99902 11.3408C8.04004 11.2178 8.01953 11.0742 7.97852 10.9717C7.91699 10.8691 7.81445 10.8281 7.6709 10.8486C7.52734 10.8896 7.44531 10.9512 7.4248 11.0537C7.4043 11.1562 7.4043 11.2793 7.44531 11.3818C7.48633 11.5049 7.52734 11.6074 7.58887 11.6895ZM8.12207 10.2129C8.04004 10.2949 7.99902 10.3975 7.99902 10.5C8.01953 10.623 8.04004 10.7051 8.08105 10.7666C8.12207 10.8281 8.18359 10.8486 8.22461 10.8076C8.28613 10.7666 8.32715 10.6436 8.34766 10.459C8.34766 10.3975 8.34766 10.3359 8.34766 10.2949C8.32715 10.2334 8.30664 10.1924 8.26562 10.1719C8.24512 10.1514 8.18359 10.1514 8.12207 10.2129ZM19.0421 47.1064H18.9805C18.919 47.1064 18.8575 47.0859 18.8165 47.0654C18.755 47.0244 18.7345 46.9834 18.7139 46.9219C18.6934 46.8809 18.6729 46.8398 18.6524 46.7783C18.6524 46.7168 18.6319 46.6758 18.6114 46.6553C18.5909 46.6348 18.5909 46.6143 18.5704 46.6143L18.5089 46.6348C18.4268 46.6963 18.3653 46.7373 18.2833 46.7373C18.2218 46.7373 18.1602 46.6963 18.0782 46.5938C17.9962 46.4912 17.9141 46.4092 17.8116 46.3271C17.627 46.1836 17.4835 46.0605 17.422 45.958C17.2784 45.7529 17.1964 45.4453 17.1554 44.9941C17.1554 44.1738 17.3809 42.9639 17.8321 41.3848C17.9346 41.0771 18.0372 40.708 18.1602 40.2773C19.1651 36.9961 19.8009 34.9043 20.0675 33.9814C20.2315 33.4688 20.293 33.2021 20.293 33.1406C20.293 33.0996 20.3341 32.9355 20.4366 32.6484C20.8673 31.459 21.0723 30.8232 21.0723 30.7207C21.0518 30.6182 21.1134 30.3721 21.2569 29.9824C21.4415 29.4492 21.7286 28.5469 22.0977 27.2754L23.1231 24.3018C23.5128 23.2559 23.7999 22.5586 23.9229 22.2305C24.0255 21.9844 24.1075 21.7178 24.1485 21.4307C24.2511 21.041 24.3536 20.6924 24.4766 20.4258C24.6612 20.1182 24.9073 19.9336 25.2149 19.8926C25.5636 19.8926 25.8712 19.9746 26.1173 20.1387C26.3839 20.2822 26.5889 20.5283 26.753 20.8154L26.9581 21.1025C26.9991 21.123 27.0196 21.1641 27.0196 21.1846V21.2256C27.0196 21.2461 26.9991 21.2871 26.9786 21.3076C26.9581 21.3281 26.9376 21.3486 26.9376 21.3691C26.9171 21.3896 26.8966 21.4717 26.835 21.6152C26.8555 21.6357 26.8761 21.6562 26.9171 21.6562L27.2247 21.5742L27.5733 21.4102C27.8809 21.2666 28.1886 21.1436 28.5167 21.0205C28.8243 20.8975 29.0909 20.8359 29.296 20.8359C29.5011 20.8975 29.6651 20.918 29.8087 20.918C30.1778 20.918 30.6495 21.082 31.2647 21.3896C32.2696 21.9639 33.0079 22.8457 33.4796 24.0146L33.6231 24.2607C33.8077 24.6504 34.0128 24.835 34.2179 24.835H34.3819C34.4845 24.835 34.669 24.7529 34.9561 24.5684C35.3868 24.3428 35.8995 24.1172 36.4942 23.8711L36.6378 23.8096L36.6788 23.9121C36.6993 23.8096 36.6993 23.7275 36.7198 23.6865C36.7198 23.6455 36.7198 23.625 36.7403 23.6045L36.7608 23.707C36.7608 23.7275 36.7813 23.748 36.7813 23.7686C36.7813 23.7891 36.7813 23.8096 36.8018 23.8301H36.8223C36.8223 23.7891 36.8429 23.7275 36.8634 23.6455L36.9249 23.666C36.9864 23.666 37.0274 23.6455 37.0684 23.625C37.1095 23.6045 37.171 23.5635 37.2325 23.5225C37.5401 23.2354 37.8477 23.0713 38.1348 23.0098C38.3194 22.9482 38.4835 22.8662 38.668 22.7432C38.7296 22.7021 38.7706 22.6816 38.8116 22.6611C38.8731 22.6611 38.9141 22.6816 38.9552 22.7021C38.5245 23.3379 37.9708 23.8301 37.294 24.1377C37.212 24.1787 37.1095 24.2197 37.0479 24.2812C36.6993 24.4658 36.3507 24.6504 36.0225 24.8145C35.5304 25.04 35.0382 25.3066 34.546 25.6143C35.0177 25.4912 35.4278 25.3477 35.7559 25.2041C36.1046 25.0605 36.6583 24.7939 37.4581 24.3838C37.6427 24.3018 37.8067 24.2607 37.9708 24.2607C37.1915 25.0195 36.3096 25.6758 35.2843 26.2295L34.7305 26.5576L34.2589 26.8037C33.9513 26.9883 33.8077 27.1523 33.8077 27.2754C33.8282 27.3369 33.8487 27.3779 33.8692 27.4395C33.9102 27.4805 33.9307 27.542 33.9513 27.6445C33.9513 27.7471 33.8897 27.8496 33.7257 27.9932C33.5821 28.1367 33.5206 28.2598 33.5206 28.3418L33.4386 28.6699C33.1514 29.3877 32.7618 30.0234 32.2901 30.5977C31.88 31.0693 31.6749 31.3564 31.6749 31.4385H31.6954C31.7979 31.4385 32.085 31.2744 32.5362 30.9258L32.1261 31.3359C31.9005 31.541 31.7364 31.6436 31.5929 31.6436C31.5518 31.6436 31.5108 31.6436 31.4698 31.623C31.4493 31.6025 31.4083 31.6025 31.3673 31.6025C31.2647 31.6025 31.1827 31.6641 31.0802 31.7871C30.9776 31.9307 30.6905 32.0332 30.1778 32.0947C29.9317 32.1357 29.6856 32.1562 29.4395 32.1562C28.7423 32.1562 28.045 31.9922 27.3682 31.6846C26.8966 31.459 26.5684 31.2129 26.3634 30.9053C26.2198 30.6797 26.1173 30.3926 26.0968 30.0234V29.6748C26.1173 29.2646 26.3634 28.8135 26.7735 28.3623C27.4093 27.6855 28.4552 27.0498 29.9522 26.4551L31.7569 25.6143C31.6954 24.5479 31.3878 23.8506 30.8751 23.502C30.6905 23.4404 30.5059 23.3994 30.3009 23.3994C29.6651 23.3994 29.1524 23.5635 28.7833 23.8916L27.6348 25.0811C27.0196 25.6758 26.671 25.9834 26.6095 25.9834C26.5889 25.9834 26.5889 25.9834 26.5889 25.9629C26.5889 25.9424 26.5684 25.9424 26.5684 25.9424C26.5274 25.9424 26.3839 26.0654 26.1788 26.291C25.7071 26.8652 25.42 27.2549 25.338 27.46C25.0714 27.7881 24.9483 28.0752 24.9688 28.3213L24.9893 28.3828C24.9893 28.4443 24.9688 28.4854 24.9073 28.5059C24.7022 28.7109 24.4151 29.3057 24.046 30.2695C23.7589 30.9873 23.5538 31.582 23.4102 32.0537C23.3282 32.4229 23.1436 33.0176 22.877 33.8584L22.5079 35.1914C22.3028 35.9297 22.1798 36.3193 22.1182 36.4014C22.0567 36.4834 21.7081 37.6523 21.0518 39.9082C21.0313 40.1543 20.9698 40.3799 20.8468 40.6055C20.7237 40.9746 20.6417 41.2412 20.6007 41.4053C20.5596 41.6514 20.4776 41.9385 20.3751 42.2666C20.3136 42.4922 20.2725 42.6562 20.2725 42.7588L20.3136 42.8203C20.3956 42.8203 20.5186 42.6562 20.6622 42.3486C20.8057 42.041 20.9698 41.7949 21.1134 41.6104C21.2774 41.4873 21.3389 41.3643 21.3389 41.2822C21.3389 41.0361 21.421 40.9131 21.5645 40.9131C21.6055 40.9131 21.6466 40.9541 21.6466 41.0361C21.6466 41.1797 21.6055 41.4258 21.4825 41.8154C21.38 42.2051 21.2979 42.6973 21.2569 43.2715C21.2159 43.6406 21.1134 44.0918 20.9698 44.6455C20.8263 45.1992 20.6622 45.6299 20.4776 45.9375C20.2315 46.5117 19.8214 46.9014 19.2677 47.0859C19.1856 47.1064 19.1241 47.1064 19.0421 47.1064ZM21.9747 35.376C21.9747 35.376 22.0157 35.3555 22.0772 35.3145C22.1388 35.2529 22.1798 35.1914 22.2208 35.1094C22.2413 35.0479 22.2618 34.9658 22.2413 34.8838C22.2413 34.7607 22.2413 34.6992 22.2208 34.6992C22.2208 34.6992 22.2003 34.7402 22.2003 34.8428C22.1798 34.9248 22.1593 35.0068 22.1388 35.0684C22.0977 35.1504 22.0772 35.2119 22.0157 35.2734C21.9747 35.335 21.9542 35.376 21.9747 35.376ZM19.3702 43.292C19.4317 43.292 19.4932 43.0664 19.6163 42.6357C19.7188 42.2051 19.7598 41.9795 19.7598 41.9385C19.7598 41.8975 19.8009 41.7334 19.8829 41.4873C19.9649 41.2412 20.0059 41.0156 20.0264 40.8105C20.0059 40.585 20.047 40.4824 20.1085 40.4619C20.1905 40.4414 20.7852 38.5137 21.9337 34.6787C22.1388 33.8789 22.2413 33.3662 22.2208 33.1201C22.2208 33.0586 22.2208 32.9971 22.2003 32.9561C22.1388 32.8535 22.0977 32.792 22.0772 32.792C22.0362 32.792 21.9952 32.8945 21.9132 33.1201C21.8106 33.3867 21.7696 33.6738 21.7901 33.9814L21.8106 34.0635C21.8311 34.3096 21.7696 34.4941 21.6466 34.5762C21.544 34.6377 21.4825 34.7402 21.4825 34.8223L21.6466 34.8018C21.6671 34.8018 21.6876 34.8223 21.6876 34.8633C21.6876 34.9453 21.6671 35.0684 21.6055 35.2119C21.5645 35.3555 21.503 35.4375 21.462 35.4375C21.462 35.4375 21.4415 35.417 21.4415 35.3965L21.4825 35.1914C21.4825 35.1299 21.462 35.0889 21.421 35.0889C21.38 35.0889 21.3595 35.1094 21.3184 35.1504C21.2979 35.2119 21.2774 35.2734 21.2774 35.335C21.2569 35.417 21.2364 35.499 21.2159 35.6016C21.1954 35.7041 21.1749 35.7861 21.1544 35.8477C21.1134 35.9297 21.1134 35.9707 21.1134 36.0117C21.1339 36.0117 21.1749 35.9707 21.2569 35.8682C21.3184 35.7861 21.3595 35.7246 21.38 35.7246C21.4005 35.7246 21.421 35.7451 21.421 35.7861C21.421 35.8887 21.38 36.0527 21.2774 36.2783C21.2364 36.4014 21.1954 36.4629 21.1544 36.4629C21.1339 36.4629 21.1339 36.4629 21.1339 36.4219C21.1339 36.4014 21.1134 36.3809 21.1134 36.3809C20.9903 36.3809 20.5186 37.8574 19.6573 40.79C19.4932 41.4463 19.3907 41.8154 19.3292 41.918C19.2882 42.0205 19.2677 42.1025 19.2882 42.1641C19.2882 42.2256 19.3087 42.2871 19.3702 42.3076C19.4112 42.3486 19.4522 42.4102 19.4522 42.4922C19.4522 42.5742 19.4522 42.6768 19.4317 42.7998C19.4112 42.9229 19.3907 43.0254 19.3702 43.0869C19.3497 43.1484 19.3497 43.21 19.3497 43.2305L19.3292 43.251C19.3292 43.2715 19.3497 43.292 19.3702 43.292ZM22.4874 34.1045C22.4874 34.1045 22.5079 34.084 22.5489 34.0225C22.5694 33.9609 22.6104 33.8789 22.6309 33.7764C22.6514 33.6943 22.672 33.6123 22.6925 33.5303L22.754 33.2432C22.5899 33.5508 22.5079 33.7559 22.4874 33.8174C22.4464 33.8994 22.4464 33.9609 22.4464 34.0635C22.4669 34.1045 22.4669 34.1045 22.4874 34.1045ZM22.9796 30.1875C22.9796 30.1875 23.0206 30.167 23.0411 30.126C23.0821 30.085 23.1026 30.0645 23.1026 30.0439C23.1026 29.9824 23.0616 29.9619 23.0206 29.9619C22.9591 29.9619 22.918 30.0234 22.918 30.1055C22.918 30.167 22.9386 30.1875 22.9796 30.1875ZM23.5538 30.7412C23.5948 30.7412 23.6153 30.6592 23.5948 30.5156C23.5948 30.4541 23.5743 30.4131 23.5333 30.4131C23.5128 30.4131 23.4923 30.4131 23.4718 30.4336C23.4307 30.4541 23.4307 30.4951 23.4307 30.5566V30.6182C23.4923 30.7002 23.5333 30.7412 23.5538 30.7412ZM27.6348 22.251C27.7374 22.251 27.9014 22.1689 28.1065 22.0049C28.3321 21.8408 28.4757 21.7588 28.5577 21.7588H28.5987C28.6807 21.7588 28.7218 21.7178 28.7013 21.6357C28.7013 21.5742 28.6807 21.5332 28.6602 21.5332C28.6397 21.5332 28.6192 21.5537 28.5987 21.5537C28.5782 21.5742 28.5167 21.5947 28.4141 21.6357C28.2911 21.6973 28.168 21.7383 28.0245 21.7998C27.8809 21.8613 27.7579 21.9023 27.6554 21.9639C27.5528 22.0254 27.5118 22.0869 27.5118 22.1279C27.5323 22.21 27.5733 22.251 27.6348 22.251ZM28.5782 29.4287C28.6192 29.4287 28.6807 29.4082 28.7833 29.3672L28.9268 29.3057C29.4395 29.1211 29.9317 28.7725 30.4239 28.2598C30.5675 28.1162 30.629 28.0137 30.629 27.9727C30.629 27.8906 30.5675 27.8701 30.4649 27.8701C30.3624 27.8701 30.2188 27.9111 30.0548 28.0137C29.9727 28.0752 29.7061 28.2393 29.2755 28.4854L28.8448 28.7109C28.4962 28.916 28.3321 29.1006 28.3526 29.2441C28.3526 29.3672 28.4141 29.4287 28.5167 29.4287H28.5782ZM29.5421 31.6025C29.7471 31.6025 29.9317 31.582 30.1368 31.5615C30.3214 31.5205 30.5059 31.459 30.6905 31.3564C30.8956 31.2744 31.0596 31.1924 31.2032 31.1104C31.3468 31.0283 31.4493 30.9668 31.4903 30.9463C31.6749 30.8027 31.88 30.5566 32.1055 30.208C32.3516 29.8799 32.5772 29.5518 32.7618 29.2236C32.9464 28.8955 33.0489 28.6699 33.0489 28.5469C33.0489 28.5059 33.0284 28.5059 32.9874 28.5059C32.8438 28.5059 32.7413 28.5879 32.6798 28.793C32.6388 28.8955 32.5157 29.0801 32.2901 29.3467C31.7159 30.0029 31.2442 30.4541 30.8956 30.7207C30.2393 31.1104 29.6651 31.3154 29.1524 31.3154L28.9473 31.2949C28.6192 31.2949 28.4552 31.3564 28.4552 31.4385C28.4757 31.5 28.7628 31.5615 29.337 31.6025H29.5421ZM37.4786 24.3428C37.5401 24.3018 37.7042 24.2402 37.9708 24.1787L38.1759 24.1377L38.2784 24.1582C38.1554 24.1787 38.0528 24.1787 37.9913 24.1992C37.9093 24.2197 37.8477 24.2402 37.7657 24.2607C37.7042 24.2812 37.6016 24.3018 37.5196 24.3223L37.4786 24.3428ZM43.1076 30.5977C43.0255 30.5977 42.9845 30.5771 42.9845 30.4951C42.9845 30.3926 43.0255 30.3516 43.1076 30.3516C43.1691 30.3516 43.2101 30.3926 43.2101 30.4746C43.2101 30.5566 43.1691 30.5977 43.1076 30.5977ZM39.1496 33.2227H39.1086C38.6164 33.2227 38.1037 33.0381 37.5295 32.6484C36.5246 31.8691 36.0119 30.8232 36.0119 29.5107C36.0734 28.3213 36.4836 26.8037 37.2629 24.9785C37.8986 23.4814 38.5138 22.415 39.1496 21.7383C39.9494 21.0205 40.7492 20.6514 41.5285 20.6514C41.7951 20.6514 42.1027 20.6924 42.4513 20.8154C42.6769 20.8975 42.841 20.9385 42.9845 20.9385C43.0871 20.9385 43.2101 20.8975 43.3332 20.8154C43.4767 20.7334 43.5998 20.6924 43.6818 20.6924C43.9074 20.6924 44.215 20.8359 44.6252 21.1025C44.8918 21.3076 45.0968 21.4512 45.2404 21.5127C45.5685 21.6973 45.7531 22.0459 45.7941 22.5176C45.7941 22.6816 45.8146 22.8047 45.8761 22.8662C45.9787 23.1328 46.0402 23.4404 46.0607 23.8506C46.0607 24.0557 46.0607 24.2607 46.0402 24.4453C46.0197 24.6299 46.0197 24.8555 45.9992 25.1221C45.9992 25.3271 46.1222 25.4092 46.3478 25.4092C46.6554 25.4092 46.84 25.3682 46.9015 25.3066C47.5783 25.0811 48.1525 24.835 48.6652 24.5479C49.1779 24.2607 49.9162 23.8301 50.9005 23.2969C51.0236 23.0713 51.3722 22.8867 51.967 22.8047C51.8029 23.1328 51.6183 23.3789 51.3927 23.584C51.3107 23.666 51.1877 23.8096 51.0441 23.9736C50.88 24.1582 50.6134 24.3428 50.2443 24.5273C49.8957 24.7119 49.4855 24.9785 49.0343 25.3066C49.1779 25.3066 49.588 25.1221 50.2238 24.7734C50.6134 24.5684 50.8595 24.4658 50.9211 24.4658C50.9211 24.5068 50.6545 24.7119 50.1418 25.0605C50.0392 25.1221 49.9777 25.1631 49.9572 25.1836C49.9367 25.2246 49.4035 25.5322 48.3986 26.1475C47.8859 26.4551 47.3732 26.6807 46.84 26.8242C46.8195 26.8242 46.6759 26.8857 46.3888 26.9473C46.0812 27.0293 45.9377 27.0908 45.9377 27.1523C45.9377 27.1934 46.1017 27.2344 46.4504 27.2754C47.2091 27.1934 47.9269 26.9678 48.5627 26.5576L49.6291 26.0859L49.506 26.168C49.0138 26.6602 48.4806 27.0703 47.8859 27.4189C47.7013 27.501 47.3937 27.6035 46.963 27.7061C46.2248 27.8906 45.6505 27.9727 45.2609 27.9727C45.0353 27.9727 44.8918 27.9521 44.7892 27.8906C44.7482 27.7676 44.6867 27.7061 44.6457 27.7061C44.5841 27.7061 44.5431 27.8086 44.5021 27.9932C44.4201 28.2393 44.338 28.3623 44.256 28.3623C44.174 28.3828 44.133 28.4443 44.133 28.5674C44.133 28.6904 44.092 28.752 44.0304 28.752C43.9689 28.7725 43.8254 28.957 43.6408 29.3262C43.4357 29.6748 43.1486 30.0439 42.7795 30.3926C42.4513 30.7002 42.2873 30.8848 42.2873 30.9873C42.2873 31.0283 42.3078 31.0488 42.3693 31.0488L42.5334 31.0283C42.5539 31.0283 42.5539 31.0283 42.5539 31.0488C42.5539 31.1104 42.4718 31.2539 42.2873 31.4795C42.0412 31.7666 41.8771 31.8896 41.8156 31.8896C41.7951 31.8896 41.7951 31.8896 41.7951 31.8691C41.7951 31.8486 41.8566 31.7461 42.0002 31.582C42.0822 31.459 42.1232 31.3975 42.1232 31.3564C42.1232 31.3359 42.1232 31.3359 42.1027 31.3359C42.0412 31.3359 41.9386 31.3975 41.7746 31.541C41.59 31.6846 41.508 31.8076 41.508 31.9307C41.508 32.1152 41.3439 32.2998 41.0363 32.5049C40.7287 32.6895 40.38 32.8535 40.0109 32.9971C39.6213 33.1406 39.3341 33.2021 39.1496 33.2227ZM38.4113 30.7207C38.6369 30.7207 38.9855 30.4951 39.4777 30.1055C39.8673 29.7773 40.298 29.3467 40.7902 28.752C41.2824 28.1572 41.713 27.6035 42.0822 27.0498C42.4513 26.5166 42.6359 26.127 42.6564 25.9424C42.6564 25.8193 42.5949 25.6758 42.4718 25.5117C42.3283 25.3271 42.2052 25.0605 42.1027 24.7119C42.0002 24.3633 41.9181 24.0557 41.8976 23.7686L41.9181 23.6865C41.9181 23.4814 41.8771 23.3789 41.7951 23.3789C41.6925 23.3789 41.549 23.4814 41.3644 23.666C41.1798 23.8506 41.0158 23.9736 40.8517 23.9941C40.6877 24.0352 40.5441 24.1992 40.4005 24.5068C40.257 24.8145 40.0929 25.0605 39.9494 25.2451C39.7853 25.4297 39.7033 25.5938 39.7033 25.7373C39.7033 25.8809 39.6623 25.9834 39.5802 26.0449C39.4777 26.0859 39.3341 26.4141 39.1291 27.0293C38.7804 28.0547 38.5138 28.916 38.3293 29.5928C38.2677 29.7773 38.2267 29.9004 38.2062 29.9824C38.1857 30.0645 38.1652 30.167 38.1652 30.2695C38.1652 30.5771 38.2472 30.7207 38.3908 30.7207H38.4113ZM39.7033 32.5459C39.7648 32.5459 39.8879 32.5049 40.0314 32.4229C40.6261 32.1562 41.3234 31.5615 42.1232 30.6797C42.6974 30.0645 43.1691 29.4492 43.5382 28.8545C43.8869 28.2598 44.092 27.9316 44.1125 27.9111C44.215 27.8701 44.256 27.7881 44.256 27.665C44.256 27.5625 44.215 27.501 44.1535 27.501C44.092 27.501 43.9074 27.7266 43.5998 28.1982C43.0666 28.9775 42.4718 29.7363 41.8156 30.4336C41.1388 31.1309 40.5646 31.623 40.0724 31.9102C39.6623 32.1357 39.4572 32.2998 39.4572 32.4434C39.4572 32.5049 39.5392 32.5459 39.7033 32.5459ZM44.9123 25.0605L44.9328 24.999C45.1379 24.6094 45.2199 24.3223 45.2199 24.1582C45.2199 24.0762 45.2199 24.0352 45.1789 24.0146C45.1379 24.0557 45.0763 24.1377 45.0353 24.2812C44.9943 24.4248 44.9533 24.5684 44.9328 24.7324C44.9123 24.876 44.9123 24.999 44.9123 25.0605ZM45.7531 25.04C45.8351 25.0195 45.8761 24.9375 45.8761 24.8145C45.8761 24.6709 45.8556 24.6094 45.8146 24.5889C45.7736 24.5889 45.7326 24.6299 45.6916 24.7324L45.6711 24.876C45.6711 24.958 45.6916 25.0195 45.7531 25.04ZM45.8351 24.1582C45.8761 24.1582 45.8966 24.1172 45.8966 24.0352C45.8966 24.0146 45.8966 23.9941 45.8761 23.9531C45.8761 23.9326 45.8351 23.9121 45.7941 23.9121C45.7326 23.9121 45.7121 23.9736 45.7121 24.0557C45.7121 24.1172 45.7531 24.1377 45.8351 24.1582ZM51.2287 24.4248C51.2082 24.4248 51.1877 24.4248 51.1877 24.4043C51.1877 24.3633 51.2492 24.2607 51.3312 24.1172C51.4953 23.8711 51.6388 23.707 51.7824 23.584C51.9259 23.4609 52.0695 23.3174 52.1925 23.1328C52.3361 22.9482 52.4796 22.8457 52.6437 22.8252C52.4181 23.3174 52.008 23.7891 51.4338 24.2812L51.2287 24.4248ZM50.757 25.4092C50.7365 25.4092 50.716 25.4092 50.716 25.3887C50.716 25.2861 50.798 25.2451 50.9826 25.2246C50.9826 25.2451 50.9826 25.2656 50.9621 25.2656C50.9621 25.2656 50.9621 25.2656 50.9621 25.2861C50.9621 25.2861 50.9416 25.2861 50.9416 25.3066L50.757 25.4092ZM52.172 22.7637H52.131C52.1105 22.7637 52.09 22.7227 52.09 22.6611C52.09 22.6201 52.131 22.5791 52.213 22.5176C52.2746 22.5381 52.3156 22.5586 52.3361 22.5996C52.3361 22.7021 52.2746 22.7637 52.172 22.7637ZM49.7931 25.7988L49.7316 25.8193C49.7111 25.8193 49.6906 25.7988 49.6906 25.7783C49.6906 25.7578 49.7521 25.7373 49.8957 25.6963C49.9572 25.6963 49.9982 25.6963 49.9982 25.7168C49.9982 25.7578 49.9367 25.7988 49.7931 25.7988ZM50.1721 32.5664C49.4748 32.5664 48.8186 32.3408 48.2239 31.8896C48.0803 31.7256 47.9983 31.5615 47.9778 31.377C47.9573 31.1924 48.0188 30.8643 48.1828 30.3926L49.3518 27.2549L49.8235 25.9629C50.4387 24.1172 50.8489 22.7637 51.0539 21.9023C51.1155 21.5537 51.218 21.3076 51.3616 21.1641C51.5051 21.0205 51.8127 20.9385 52.2844 20.9385C53.1868 20.9385 53.802 21.1846 54.1506 21.6768C54.1711 21.7178 54.1711 21.7588 54.1916 21.7998C54.2121 21.9434 54.1916 22.1074 54.1506 22.2715L54.1096 22.4561L54.1301 22.5996C54.2121 22.5996 54.2737 22.5791 54.2942 22.5791C54.3352 22.5586 54.3557 22.5381 54.3557 22.5381L54.5403 22.4766L54.9914 22.292C55.3401 22.0869 55.7092 21.9023 56.0578 21.7383C56.55 21.5127 57.0422 21.2871 57.5549 21.041C57.9241 20.8564 58.2932 20.7744 58.6623 20.7744C59.5442 20.877 60.0159 21.3281 60.0569 22.1279C60.0774 22.292 60.0774 22.4561 60.0569 22.5996C59.8928 23.9941 59.5852 24.5479 59.1135 24.2607L59.134 24.2197C59.175 24.0146 59.2161 23.8916 59.1955 23.8096C59.175 23.7275 59.093 23.6865 58.9289 23.707C58.5598 23.707 58.2112 23.7686 57.8625 23.8916C57.4934 24.0352 57.1448 24.1787 56.7756 24.3633C56.427 24.5273 56.1194 24.6914 55.8938 24.8555L55.8528 24.876C55.5246 25.0605 55.3401 25.2246 55.258 25.3271C55.217 25.4092 55.1555 25.4707 55.0735 25.5117C54.9094 25.5322 54.6838 25.7373 54.3762 26.0859L53.6584 26.7422C53.3303 27.0498 53.0022 27.3574 52.6741 27.6855C52.469 27.8906 52.3254 28.0137 52.2229 28.0957C52.0793 28.2598 51.9153 28.5264 51.7717 28.916C51.7512 29.0186 51.6897 29.2236 51.6077 29.5107C51.5256 29.8184 51.4231 30.126 51.3411 30.4336C51.218 31.1514 51.1565 31.5205 51.1155 31.541C51.0745 31.582 51.0334 31.582 50.9514 31.582C50.9514 31.582 50.9514 31.5615 50.9309 31.5615L50.9104 31.582V31.7871C50.9104 32.2998 50.6438 32.5664 50.1721 32.5664ZM50.9104 30.5566C50.9309 30.5566 50.9514 30.5566 50.9514 30.5361V30.5156C50.9514 30.4951 50.9309 30.4746 50.9104 30.4541C50.8899 30.4131 50.8694 30.4131 50.8489 30.4131C50.8284 30.4131 50.8078 30.4336 50.8078 30.4336C50.7873 30.4541 50.7873 30.4746 50.7873 30.4746C50.7873 30.5361 50.8284 30.5566 50.9104 30.5566ZM52.6946 26.4551C52.7151 26.4551 52.7561 26.4141 52.8176 26.3525C52.8791 26.2705 52.9202 26.209 52.8996 26.168C52.8996 26.1475 52.8996 26.127 52.8586 26.127C52.8586 26.127 52.8176 26.1475 52.7971 26.168C52.7766 26.1885 52.7561 26.25 52.7151 26.3115C52.6946 26.373 52.6741 26.4141 52.6946 26.4346V26.4551ZM53.1868 26.0039L53.4739 25.8604C53.6584 25.7988 53.8225 25.6963 53.9661 25.5322C54.0891 25.4297 54.3967 25.1631 54.9504 24.7734C55.4836 24.3838 55.7502 24.1787 55.7912 24.1787C55.8118 24.1787 56.2014 23.9736 56.9192 23.5635C57.5549 23.2354 58.1907 22.9277 58.8264 22.6201C59.1135 22.4766 59.2366 22.374 59.2366 22.333C59.2366 22.3125 59.1955 22.292 59.134 22.292C59.011 22.292 58.8059 22.3535 58.4983 22.4766C58.3547 22.5176 58.2317 22.5791 58.1086 22.6201C57.801 22.7842 57.6164 22.8662 57.5139 22.8662C57.4319 22.8662 57.1858 22.9893 56.7756 23.2559C56.6116 23.3789 56.386 23.5225 56.0989 23.6865C55.8323 23.8506 55.5862 23.9941 55.3606 24.1377C55.1555 24.2812 54.9299 24.4248 54.7248 24.5479C54.5198 24.6914 54.3762 24.7939 54.2737 24.8555C54.1096 24.999 53.9455 25.1426 53.7815 25.2656C53.6174 25.4092 53.4123 25.6348 53.1868 26.0039ZM64.4349 37.9805C64.2503 37.9805 63.9632 37.8984 63.6146 37.7549C62.2816 37.0371 61.4202 35.7246 61.0511 33.8379C60.805 33.0381 60.682 32.0742 60.682 30.9463C60.682 30.3516 60.723 29.6953 60.7845 28.9775C61.1536 26.6807 61.7689 24.3223 62.6507 21.9229L63.8607 18.8057C63.8812 18.6621 63.9222 18.5186 63.9837 18.375L61.5638 18.6826C60.9075 18.6826 60.4769 18.6006 60.2718 18.416C60.2308 18.3955 60.2103 18.3545 60.2103 18.334C60.2103 18.293 60.2718 18.252 60.3743 18.2109C60.4769 18.1699 60.5179 18.1494 60.5384 18.1494L60.4974 18.1289H59.431C59.2874 18.1084 59.1644 18.0469 59.1029 17.9443C59.1029 17.8828 59.2464 17.8213 59.513 17.7393C59.513 17.6982 59.2259 17.6162 58.6517 17.4727C58.5902 17.4727 58.5286 17.4521 58.4466 17.4316C58.18 17.3701 57.7288 17.3291 57.1341 17.3291C56.1702 17.3291 55.637 17.124 55.5345 16.6934V16.6729C55.5345 16.5498 55.7191 16.4883 56.0677 16.4883C56.1087 16.4883 56.1497 16.4883 56.1702 16.4678L56.4368 16.4473L56.6829 16.4678C56.8675 16.4678 57.2777 16.4473 57.9134 16.3857C58.18 16.3447 59.1849 16.2627 60.928 16.1602C63.348 16.0166 64.6605 15.8525 64.9066 15.709C65.0911 15.4014 65.3372 14.8066 65.6448 13.9453L66.9779 11.0332C67.1419 10.7461 67.2855 10.4385 67.429 10.1104C67.6546 9.49512 67.9827 9.1875 68.4339 9.1875C68.7415 9.1875 69.0902 9.33105 69.4798 9.59766C69.8079 9.78223 69.9925 9.9873 70.013 10.2539C70.013 10.3564 70.013 10.4385 69.9925 10.5L69.972 10.8691C70.013 11.1152 70.1566 11.3203 70.4437 11.4844C70.6282 11.5869 70.7308 11.71 70.7308 11.833C70.7308 12.0996 70.5872 12.4072 70.3001 12.7969C70.0335 13.1865 69.7464 13.6992 69.4183 14.3145C69.1517 14.8066 68.9671 15.1553 68.8646 15.3809C70.095 15.1963 71.7562 15.0938 73.8685 15.0732C75.9808 15.0527 77.2933 15.2578 77.8265 15.709C77.7855 15.7295 77.7445 15.7295 77.6829 15.7295C77.6214 15.7295 77.5394 15.7295 77.4573 15.75C77.3548 15.7705 77.2933 15.7705 77.2523 15.791C77.2113 15.8115 77.1907 15.832 77.1907 15.8525C77.2113 15.9346 77.3548 15.9961 77.6419 16.0371C78.0726 16.0986 78.4827 16.4473 78.8724 17.0625C78.8724 17.124 78.8519 17.165 78.7904 17.1855C78.7288 17.2061 78.7083 17.2471 78.7083 17.2881L78.9339 17.4316C79.057 17.4727 79.139 17.5547 79.1595 17.7188C79.1595 17.8623 79.1185 17.9238 79.0364 17.9238C78.9339 17.9238 78.7493 17.8623 78.4417 17.7598C78.0521 17.6162 77.6829 17.4932 77.3753 17.3906C77.0472 17.3086 76.4525 17.2266 75.5911 17.1445C75.1605 17.1445 74.7298 17.1445 74.3402 17.124C72.8841 17.124 71.7562 17.2266 70.9359 17.4111C70.7718 17.4727 70.6077 17.4932 70.4232 17.4932C70.2796 17.4727 70.1976 17.3906 70.1361 17.2676L70.0745 17.1855C70.013 17.1855 69.931 17.2471 69.8489 17.3906C69.7464 17.5342 69.4798 17.6162 69.0286 17.6572C68.8851 17.6572 68.3724 17.7188 67.4905 17.8623V17.9648L67.5931 18.1494C67.5931 18.2314 67.5111 18.3545 67.3675 18.5186C67.306 18.5801 67.2855 18.6211 67.2855 18.6416L67.3265 18.6826C67.3265 18.7646 67.2034 18.8672 66.9779 18.9697C66.8958 19.0312 66.8548 19.0723 66.8548 19.1338V19.1543C66.5062 19.8721 66.3626 20.2412 66.4036 20.3027C66.4241 20.3643 66.4446 20.4258 66.4446 20.4873C66.4446 20.5898 66.4241 20.6514 66.4036 20.7129C66.3011 20.8975 66.1986 21.1641 66.096 21.4922C66.0345 21.7588 65.973 22.0254 65.8704 22.251C65.7269 22.5996 65.4603 22.7637 65.0706 22.7637H65.0501V22.7842C65.2347 22.9072 65.3167 23.0713 65.3167 23.2969C65.3167 23.625 65.1937 23.8506 64.9476 23.9531C64.8861 23.9531 64.8245 23.8506 64.804 23.666C64.7835 23.543 64.763 23.4814 64.722 23.4814C64.7015 23.4814 64.6605 23.502 64.64 23.5635C64.5989 23.625 64.5784 23.707 64.5579 23.8096C64.5374 23.9121 64.5169 24.0146 64.5169 24.1172C64.5374 24.1992 64.64 24.2607 64.8245 24.3223C65.0091 24.3838 65.1527 24.4658 65.2142 24.5273L65.1732 24.5684L64.763 24.5273C64.722 24.5273 64.7015 24.6094 64.7015 24.7529C64.722 24.7734 64.7425 24.8145 64.7425 24.8555C64.7425 24.9785 64.7015 25.0605 64.64 25.1016C64.6195 25.1016 64.6195 25.1016 64.5989 25.0811C64.5784 25.0811 64.5374 25.0605 64.4759 25.0195C64.4144 24.9785 64.3529 24.958 64.2913 24.958C64.2093 24.958 64.1683 25.04 64.1683 25.2041C64.1683 25.3887 64.2093 25.4912 64.2708 25.5117C64.3323 25.5527 64.3734 25.5732 64.3939 25.5938C64.3939 25.6963 64.3939 25.7988 64.3734 25.8604C64.3529 25.9219 64.3118 26.0244 64.2708 26.168C64.2298 26.3115 64.1683 26.4756 64.0657 26.6807C63.9837 27.0088 63.9427 27.1729 63.9427 27.1934C63.9222 27.2139 63.8607 27.2549 63.7171 27.3164C63.6556 27.3369 63.5941 27.3984 63.5325 27.4805C63.4095 27.624 63.348 27.7471 63.348 27.8496C63.348 27.9111 63.348 27.9521 63.3685 27.9521C63.389 27.9521 63.4915 27.8906 63.7171 27.7471C63.7376 27.7471 63.7581 27.7676 63.7786 27.8291C63.7786 27.9727 63.7786 28.0752 63.7581 28.1572C63.6966 28.793 63.5736 29.1621 63.389 29.2646C63.307 29.3057 63.2249 29.3262 63.1429 29.3262C63.1429 29.3467 63.1224 29.3672 63.1224 29.3877C63.1224 29.4287 63.1634 29.4697 63.2249 29.5107C63.3275 29.6133 63.389 29.7158 63.4095 29.7979C63.4095 29.8799 63.389 29.9414 63.348 29.9824C63.307 30.0234 63.2659 30.0439 63.2249 30.0439V30.167C63.1224 31.3359 63.0609 32.2588 63.0609 32.9355C63.0609 33.0791 63.0609 33.3457 63.0814 33.7354C63.1019 34.125 63.2044 34.6172 63.43 35.1914C63.5736 35.9502 64.0657 36.8115 64.9476 37.7754C64.7835 37.9189 64.6195 37.9805 64.4349 37.9805ZM62.4046 30.4541C62.4456 30.4541 62.4456 30.4131 62.4456 30.3311C62.4456 30.2285 62.4251 30.1465 62.3841 30.126C62.3636 30.126 62.3431 30.167 62.3431 30.2285C62.3636 30.3721 62.3841 30.4541 62.4046 30.4541ZM62.5277 29.5518C62.5482 29.5518 62.5892 29.4697 62.6507 29.3057L62.7122 28.8545C62.7122 28.8135 62.7122 28.793 62.6917 28.793C62.5687 28.834 62.5277 29.0391 62.5277 29.3877V29.5518ZM62.8968 27.7266L62.9173 27.7061C62.9378 27.6855 62.9583 27.624 62.9788 27.5215C62.9993 27.4395 63.0198 27.3574 63.0609 27.2549C63.0814 27.1523 63.1019 27.0908 63.1019 27.0293C63.1019 26.9678 63.1224 26.9473 63.1429 26.9268C63.2044 26.6396 63.2454 26.4551 63.2454 26.373L63.2249 26.3525C63.1634 26.3525 63.1019 26.4756 63.0198 26.7217C62.9378 26.9678 62.8968 27.2754 62.8763 27.665C62.8763 27.7061 62.8968 27.7266 62.8968 27.7266ZM64.3734 22.4561C64.4349 22.4561 64.4759 22.415 64.5374 22.333C64.5989 22.251 64.6195 22.1895 64.6195 22.1279C64.6195 22.1074 64.6195 22.0869 64.5989 22.0664C64.5784 22.0664 64.5374 22.0869 64.4964 22.1279C64.3939 22.2305 64.3529 22.333 64.3529 22.415C64.3529 22.4355 64.3529 22.4561 64.3734 22.4561ZM65.3577 22.1895C65.4398 22.1484 65.4603 22.1074 65.4603 22.0664C65.4603 21.9844 65.4193 21.9639 65.3372 21.9639C65.2757 21.9639 65.2347 22.0049 65.2142 22.1074C65.2142 22.1689 65.2757 22.1895 65.3577 22.1895ZM71.3255 16.8984C71.9202 16.8779 72.2073 16.8369 72.2073 16.7549C72.2073 16.6934 72.0843 16.6523 71.8382 16.6523C71.2435 16.6523 70.9359 16.7139 70.9359 16.8164C71.0999 16.8779 71.223 16.8984 71.3255 16.8984ZM73.2122 16.8164L73.2943 16.7754C73.2122 16.7344 73.1507 16.7139 73.0687 16.7139C72.9866 16.7139 72.9456 16.7344 72.9456 16.7754C72.9866 16.7959 73.0482 16.8164 73.1097 16.8164H73.2122ZM77.2728 17.042C77.4163 17.042 77.4984 17.0215 77.4984 16.96C77.4984 16.8984 77.4368 16.8779 77.3548 16.8779C77.3548 16.8779 77.3138 16.8779 77.2728 16.8984C77.2318 16.9395 77.2113 16.96 77.2113 17.001C77.2113 17.042 77.2318 17.042 77.2728 17.042ZM76.3704 16.8779C76.678 16.8574 76.8216 16.8369 76.8216 16.7959C76.8011 16.6729 76.3089 16.6113 75.3245 16.6113C74.8939 16.6113 74.4632 16.6318 73.9915 16.7139C75.0989 16.8164 75.8988 16.8779 76.3704 16.8779ZM93.2475 20.6924C93.186 20.2617 93.104 19.8311 93.0219 19.4004C92.9194 18.9902 92.8374 18.6416 92.7553 18.416C92.7348 18.334 92.7143 18.252 92.6733 18.1699C92.6528 18.0469 92.6118 17.9443 92.5913 17.8828C92.5503 17.8213 92.5298 17.8008 92.5093 17.8418C92.5093 17.8828 92.4887 18.0059 92.4887 18.2109C92.4887 18.6211 92.3452 18.7852 92.0786 18.7031C91.5864 18.6416 91.6069 18.7646 92.1401 19.0723C92.3247 19.1543 92.4272 19.2363 92.4477 19.3184C92.4682 19.4209 92.4477 19.585 92.3657 19.8105C92.0991 20.5488 91.894 20.5488 91.7505 19.8516C91.6479 19.4414 91.5454 19.1953 91.4223 19.0928C91.3198 18.9902 91.2173 18.9902 91.1147 19.0723C91.0327 19.1748 90.9917 19.3184 90.9712 19.5029C90.9507 19.6875 90.9917 19.8721 91.0942 20.0566L91.2788 20.2002C91.5659 20.4258 91.73 20.6514 91.812 20.8564C91.894 21.0615 91.8325 21.1846 91.6274 21.2051C91.4018 21.2256 91.2993 21.082 91.3198 20.7949C91.3198 20.5898 91.2993 20.4873 91.2788 20.4668C91.2378 20.4463 91.1762 20.4873 91.0942 20.6309C91.0327 20.7129 90.9507 20.7539 90.8686 20.7949C90.7661 20.8359 90.7046 20.8359 90.6225 20.7949C90.52 20.8154 90.438 20.877 90.3764 20.9795C90.3149 21.082 90.2739 21.2256 90.2124 21.3691C90.1509 21.6768 89.9868 21.9844 89.7407 22.2715C89.6587 22.3535 89.6587 22.4561 89.7202 22.5791C89.8022 22.7021 89.8843 22.8252 89.9868 22.9482C90.0483 23.0508 90.1098 23.1328 90.1303 23.1738C90.1714 23.2354 90.1303 23.2559 90.0278 23.2354C89.8432 23.2148 89.6792 23.2969 89.5356 23.502C89.4126 23.707 89.3511 23.9121 89.3511 24.1172C89.3511 24.3018 89.3305 24.4453 89.2895 24.5479C89.2485 24.6504 89.187 24.7324 89.146 24.8145C89.0639 24.8965 89.0024 25.0195 88.9614 25.1836C88.8999 25.3271 88.8794 25.5527 88.8999 25.8398C88.9204 25.9219 88.8794 26.0244 88.7973 26.1885C88.7358 26.3525 88.6538 26.5166 88.5512 26.6807C88.4487 26.9062 88.3667 27.0703 88.3052 27.2139C88.1411 27.6445 88.018 27.9932 87.9155 28.3213C87.813 28.5879 87.7104 28.875 87.6079 29.1826C87.5053 29.4697 87.3413 29.8389 87.1567 30.249C86.9311 30.8027 86.7671 31.377 86.6235 31.9922C86.562 32.2588 86.48 32.5254 86.4184 32.792C86.2339 33.4072 86.0493 34.0225 85.9057 34.6377C85.8032 35.1709 85.7622 35.54 85.7622 35.7451C85.7622 35.9707 85.7827 36.0938 85.8647 36.1348C85.9262 36.1553 86.0288 36.1553 86.1723 36.1143C86.3159 36.0732 86.521 36.0527 86.7466 36.0938C86.8081 36.1143 86.8286 36.1758 86.8286 36.2783C86.8286 36.3809 86.8081 36.5039 86.7671 36.6475C86.7055 36.8525 86.685 37.0371 86.685 37.2217C86.685 37.4678 86.6645 37.6113 86.644 37.6523C86.603 37.6934 86.5415 37.6729 86.48 37.5703C86.4184 37.4678 86.3569 37.3447 86.2954 37.1807C86.2134 37.0371 86.1518 36.8936 86.0903 36.75C86.0698 36.6475 86.0288 36.5859 86.0083 36.5244C85.9878 36.4629 85.9673 36.4424 85.9468 36.4424C85.8852 36.3809 85.8237 36.4014 85.7827 36.5039C85.7212 36.5859 85.7007 36.709 85.6802 36.873C85.6391 37.0576 85.6186 37.2422 85.6186 37.4268C85.5981 37.6729 85.5571 37.8779 85.5366 38.083C85.4956 38.2676 85.4341 38.3701 85.3725 38.4111C85.311 38.4521 85.2085 38.3496 85.0649 38.1445C85.0444 38.1035 85.0444 38.083 85.0239 38.0625C85.0239 38.042 85.0239 38.042 85.0239 38.0215L85.0444 38.001C85.0444 37.9805 85.0444 37.9805 85.0444 37.9805C85.0444 37.96 85.0239 37.96 85.0034 37.9395C84.9829 37.9189 84.9624 37.8984 84.9214 37.8574C84.8803 37.8369 84.8393 37.7959 84.7778 37.7549C84.7163 37.7139 84.6548 37.6523 84.5727 37.5908C83.3423 36.709 82.8091 35.5195 82.9526 34.0225C82.9526 34.002 82.9526 33.9609 82.9731 33.9199C83.0141 33.7559 83.0552 33.5303 83.1167 33.2432C83.1987 32.9561 83.2602 32.71 83.3423 32.4639C83.4243 32.2178 83.4858 32.0742 83.5473 32.0537C83.6499 31.9307 83.7524 31.7051 83.896 31.3359C84.019 30.9668 84.1421 30.5566 84.2856 30.1055C84.4087 29.6338 84.5317 29.2031 84.6343 28.834C84.7163 28.5059 84.7778 28.2803 84.8393 28.1162C85.2085 26.9473 85.6186 25.8193 86.0698 24.6914C86.562 23.4609 87.0132 22.1689 87.4233 20.8564C87.6284 20.1182 87.8745 19.3389 88.1411 18.5186C89.187 15.5244 89.8227 12.7148 90.0483 10.1104C90.0278 9.37207 90.1098 8.94141 90.2944 8.81836C90.479 8.6748 90.9507 8.77734 91.7094 9.10547C91.771 9.14648 91.9145 9.22852 92.1811 9.35156C92.4477 9.49512 92.7553 9.65918 93.0835 9.84375C93.4116 10.0283 93.6987 10.1719 93.9448 10.3154C94.1909 10.4385 94.3139 10.5205 94.3344 10.541C94.478 10.6846 94.6011 11.0127 94.7241 11.5664C94.8471 12.0996 94.9497 12.7148 95.0522 13.3916C95.1548 14.0684 95.2573 14.6836 95.3188 15.2578C95.3803 15.7295 95.4419 16.0781 95.4829 16.3037C95.5649 16.7959 95.688 17.2881 95.811 17.7598C95.9546 18.293 96.0776 18.8672 96.1802 19.5029C96.3852 20.877 96.6108 22.251 96.8774 23.625C96.9184 23.8711 96.9389 24.0762 96.9594 24.2402C96.9594 24.3838 96.98 24.5068 97.0005 24.6504C97.021 24.7939 97.062 24.958 97.1235 25.1426C97.1645 25.3271 97.2055 25.5938 97.2876 25.9219C97.4516 26.7832 97.6772 27.8086 97.9643 29.0596C98.2719 30.29 98.6206 31.3975 99.0307 32.4023C99.4614 33.3867 99.9331 33.9199 100.446 34.043L100.589 34.0225C101.082 33.9404 101.512 33.5713 101.943 32.9355C102.353 32.2998 102.722 31.6025 103.03 30.8232C103.358 30.0645 103.583 29.4287 103.768 28.916C103.789 28.8545 103.809 28.8135 103.83 28.752C104.24 27.5625 104.65 26.3936 105.06 25.2041C105.265 24.6094 105.491 23.9941 105.696 23.3789C107.706 17.6777 109.367 11.8535 110.679 5.94727C110.7 5.80371 110.782 5.41406 110.925 4.79883C111.069 4.16309 111.233 3.48633 111.438 2.72754C111.623 1.96875 111.807 1.3125 111.971 0.779297C112.156 0.246094 112.279 0 112.381 0.0410156C112.504 0.18457 112.504 0.512695 112.402 1.06641C112.279 1.62012 112.135 2.23535 111.951 2.8916C111.787 3.48633 111.664 3.99902 111.561 4.4502C111.479 4.90137 111.458 5.16797 111.541 5.27051C111.623 5.22949 111.705 5.08594 111.807 4.86035C111.91 4.61426 112.012 4.32715 112.135 4.04004C112.238 3.75293 112.32 3.52734 112.422 3.32227C112.504 3.11719 112.566 3.01465 112.607 2.99414C112.668 2.99414 112.668 3.1582 112.648 3.46582C112.607 4.2041 112.422 5.18848 112.156 6.37793C111.889 7.56738 111.602 8.73633 111.315 9.86426C111.151 10.582 110.987 11.1768 110.884 11.6895C110.659 12.6533 110.474 13.6172 110.331 14.5811C110.269 15.1348 110.228 15.4834 110.249 15.668C110.249 15.832 110.29 15.873 110.351 15.791C110.413 15.709 110.495 15.5654 110.577 15.3604C110.659 15.1348 110.741 14.9092 110.843 14.6836C110.905 14.5195 110.946 14.376 110.987 14.2529C111.048 14.1299 111.069 14.0684 111.089 14.0273C111.11 14.0068 111.13 14.0684 111.11 14.1914C111.089 14.3145 111.048 14.54 110.987 14.8682C110.925 15.1963 110.864 15.4424 110.802 15.627C110.72 15.832 110.659 15.9551 110.597 16.0371C110.536 16.1396 110.474 16.1807 110.433 16.2217C110.372 16.2422 110.331 16.2627 110.269 16.2627C110.249 16.2627 110.228 16.2627 110.187 16.2832C110.166 16.2832 110.146 16.3037 110.125 16.3447C110.105 16.4268 110.105 16.4883 110.166 16.5293C110.228 16.5908 110.31 16.6318 110.413 16.6729C110.515 16.7139 110.618 16.7549 110.72 16.7754C110.843 16.7959 110.905 16.8369 110.966 16.8574C111.007 16.8779 111.007 16.8984 110.946 16.9189C110.884 16.96 110.72 16.9805 110.474 17.001C109.941 17.0625 109.674 17.165 109.695 17.3086C109.715 17.4521 109.941 17.6572 110.351 17.9238C110.331 17.9443 110.31 17.9443 110.29 17.9443C110.064 18.0264 109.9 18.0879 109.797 18.1289C109.695 18.1699 109.654 18.1904 109.654 18.2314C109.633 18.252 109.654 18.293 109.695 18.3545C109.736 18.416 109.777 18.5391 109.818 18.7236C109.859 18.9082 109.818 19.1748 109.736 19.5439C109.695 19.6465 109.674 19.708 109.674 19.749C109.654 19.79 109.654 19.8105 109.674 19.8105C109.674 19.8105 109.695 19.79 109.715 19.749C109.756 19.708 109.797 19.667 109.859 19.6055C109.92 19.5645 109.982 19.5234 110.064 19.5029C110.146 19.4619 110.249 19.4824 110.351 19.5439C110.433 19.626 110.433 19.6875 110.392 19.749C110.351 19.79 110.249 19.8516 110.125 19.8926C109.982 19.9746 109.838 20.0566 109.674 20.2002C109.51 20.3232 109.387 20.5078 109.305 20.7334C109.305 20.7539 109.285 20.7949 109.264 20.8154C109.203 20.8359 109.141 20.918 109.08 21.0205C108.998 21.123 108.936 21.3076 108.854 21.5537C108.833 21.5742 108.813 21.6357 108.792 21.6973C108.71 21.9844 108.608 22.374 108.464 22.8867C108.321 23.3994 108.198 23.8916 108.116 24.3428C108.034 24.7734 108.034 25.04 108.136 25.1221C108.341 25.2246 108.485 25.1836 108.546 24.9785C108.608 24.7939 108.649 24.5479 108.669 24.2607C108.69 23.9736 108.751 23.7275 108.813 23.5225C108.874 23.3174 109.018 23.2354 109.223 23.3174C109.285 23.3379 109.305 23.4404 109.305 23.584C109.305 23.748 109.285 23.9326 109.244 24.1377C109.182 24.5273 109.162 24.876 109.162 25.2041C109.182 25.2656 109.121 25.3682 109.039 25.5322C108.936 25.6758 108.833 25.8398 108.71 26.0244C108.505 26.291 108.362 26.5166 108.259 26.7012C107.336 28.4443 106.762 30.29 106.557 32.2178C106.516 32.3613 106.434 32.5254 106.27 32.751C106.024 33.0176 105.798 33.4072 105.593 33.9609C105.45 34.2686 105.327 34.4736 105.204 34.5762C105.081 34.6787 104.978 34.7607 104.896 34.7812C104.814 34.8223 104.773 34.8428 104.732 34.9043C104.711 34.9453 104.691 35.0273 104.691 35.1504C104.711 35.2939 104.752 35.4785 104.814 35.7656C104.855 35.9297 104.834 35.9912 104.773 35.9707C104.711 35.9707 104.629 35.9297 104.506 35.8477C104.404 35.7656 104.281 35.7041 104.178 35.6426C104.055 35.6016 103.973 35.6426 103.912 35.7656C103.932 35.8682 103.953 35.9502 103.994 36.0322C104.055 36.1348 104.055 36.2168 104.055 36.2988C104.035 36.3604 103.932 36.4219 103.748 36.4629C103.583 36.5244 103.255 36.5449 102.804 36.5859C101.82 36.627 100.753 36.4629 99.605 36.0732C98.4565 35.6836 97.5747 35.0889 96.9389 34.3096C96.1186 33.0381 95.5239 31.6436 95.1548 30.1465C94.3755 27.3164 93.7807 24.4248 93.3706 21.5127C93.3501 21.3691 93.3296 21.2256 93.3091 21.082C93.2886 20.959 93.268 20.8154 93.2475 20.6924ZM106.434 29.6543C106.393 29.7158 106.249 30.0234 105.983 30.5771C105.737 31.1104 105.45 31.7256 105.142 32.4229C104.814 33.0996 104.547 33.7148 104.342 34.2275C104.137 34.7402 104.035 35.0068 104.096 35.0273C104.137 35.0479 104.383 34.6582 104.855 33.8379C105.204 33.2637 105.552 32.5254 105.921 31.6436C106.311 30.7822 106.537 30.0029 106.619 29.3467L106.434 29.6543ZM97.8003 29.2852C97.7593 29.1826 97.7182 29.1416 97.6567 29.1211C97.6157 29.1006 97.5747 29.1211 97.5337 29.1621C97.4927 29.2031 97.4927 29.2646 97.4927 29.3262C97.5132 29.3877 97.5747 29.4697 97.6772 29.5312C97.7182 29.5518 97.7593 29.5518 97.7798 29.5312C97.8003 29.5107 97.8208 29.4697 97.8208 29.4082C97.8208 29.3672 97.8003 29.3057 97.8003 29.2852ZM107.665 25.9424C107.439 26.2705 107.254 26.6396 107.09 27.0498C106.926 27.46 106.803 27.8291 106.721 28.1777C106.639 28.5059 106.598 28.752 106.619 28.875C106.639 28.998 106.721 28.957 106.885 28.7314C107.029 28.5264 107.254 28.0547 107.541 27.3574C107.562 27.2959 107.582 27.2549 107.624 27.1934C107.726 26.9678 107.808 26.7217 107.89 26.4551C107.972 26.209 107.952 25.9834 107.849 25.7783L107.665 25.9424ZM96.5493 25.04C96.6313 25.1836 96.6928 25.2041 96.7339 25.1426C96.7749 25.0811 96.7954 24.9785 96.7749 24.835C96.7749 24.6914 96.7339 24.5684 96.6723 24.4248C96.5903 24.3018 96.4878 24.2402 96.3647 24.2197C96.3032 24.3223 96.3032 24.4453 96.3442 24.5889C96.3852 24.7119 96.4468 24.835 96.5083 24.958C96.5288 24.9785 96.5288 25.0195 96.5493 25.04ZM95.9136 21.7588C95.9751 21.8818 96.0161 21.9434 96.0366 21.9639C96.0571 22.0049 96.0571 21.9844 96.0571 21.9639C96.0571 21.9229 96.0571 21.8818 96.0366 21.8203C96.0161 21.7588 96.0161 21.6768 95.9751 21.6152C95.9546 21.5537 95.9341 21.4922 95.9136 21.4307C95.893 21.3896 95.8725 21.3486 95.852 21.3486L95.8315 21.4102C95.8315 21.4512 95.8315 21.4922 95.852 21.5537C95.8725 21.6152 95.893 21.6768 95.9136 21.7383V21.7588ZM92.2837 18.3545C92.2837 18.293 92.2837 18.252 92.2427 18.2109C92.2221 18.1904 92.1606 18.1699 92.0991 18.1699C92.0376 18.1699 91.9966 18.1494 91.9555 18.0879C91.9145 18.0469 91.894 17.9648 91.894 17.8828C91.8735 17.7188 91.8325 17.6367 91.7505 17.6162C91.6889 17.5957 91.6069 17.6367 91.5249 17.7188C91.4634 17.8008 91.4223 17.9033 91.4223 18.0264C91.4223 18.1494 91.4839 18.252 91.6274 18.375C91.9966 18.6416 92.2016 18.6211 92.2837 18.3545ZM108.546 17.3291C108.444 17.2881 108.382 17.2881 108.341 17.3291C108.28 17.3701 108.28 17.4316 108.28 17.5137C108.28 17.5957 108.3 17.6367 108.362 17.6777C108.403 17.7188 108.485 17.6982 108.567 17.6162C108.608 17.5752 108.628 17.5137 108.608 17.4727C108.587 17.4111 108.567 17.3701 108.546 17.3291ZM92.1606 17.3496C92.2632 17.4316 92.3247 17.4521 92.3862 17.4111C92.4272 17.3701 92.4682 17.3086 92.4887 17.2061C92.4887 17.1035 92.4887 16.9805 92.4887 16.8574C92.4887 16.7344 92.4682 16.6318 92.4477 16.5293C92.4272 16.4268 92.4067 16.3652 92.3862 16.3242C92.3657 16.2832 92.3452 16.3037 92.3247 16.3652C92.3247 16.4473 92.3247 16.4883 92.3452 16.5293C92.3657 16.5498 92.3657 16.5908 92.3657 16.5908C92.3657 16.6113 92.3247 16.6318 92.3042 16.6318C92.2632 16.6523 92.1811 16.6523 92.0786 16.6523C91.9761 16.6523 91.935 16.6934 91.935 16.7754C91.935 16.8574 91.9555 16.9395 91.9966 17.0215C92.0376 17.124 92.0786 17.2061 92.1196 17.2881C92.1401 17.3086 92.1606 17.3291 92.1606 17.3496ZM108.69 16.5498C108.587 16.4883 108.485 16.4883 108.423 16.5498C108.362 16.5908 108.321 16.6729 108.321 16.7549C108.321 16.8369 108.341 16.8779 108.403 16.9189C108.464 16.96 108.567 16.9395 108.69 16.8369C108.751 16.7959 108.772 16.7549 108.772 16.6934C108.772 16.6523 108.751 16.5908 108.69 16.5498ZM109.018 14.8682C109.018 14.9707 109.059 15.0527 109.1 15.0732C109.162 15.1143 109.223 15.1143 109.285 15.0938C109.326 15.0732 109.367 15.0322 109.387 14.9707C109.387 14.9092 109.346 14.8271 109.264 14.7451C109.223 14.7246 109.162 14.7246 109.121 14.7451C109.08 14.7861 109.039 14.8271 109.018 14.8682ZM109.449 13.125C109.326 13.1865 109.285 13.248 109.305 13.3096C109.346 13.3711 109.408 13.4326 109.51 13.4736C109.592 13.5146 109.695 13.5352 109.797 13.5146C109.879 13.4941 109.941 13.4121 109.961 13.2891C109.961 13.207 109.92 13.166 109.859 13.125C109.797 13.1045 109.715 13.1045 109.654 13.1045C109.572 13.1045 109.49 13.125 109.449 13.125ZM109.982 12.8584C110.146 12.8584 110.249 12.8174 110.249 12.7354C110.269 12.6738 110.249 12.6123 110.166 12.5303C110.084 12.4688 110.002 12.4482 109.92 12.4482C109.838 12.4482 109.777 12.5303 109.736 12.6738C109.715 12.7148 109.736 12.7559 109.756 12.7764C109.797 12.7969 109.818 12.8174 109.859 12.8379C109.9 12.8584 109.941 12.8584 109.982 12.8584ZM110.433 11.1768C110.597 11.1562 110.679 11.1152 110.7 11.0332C110.72 10.9717 110.7 10.8896 110.638 10.8281C110.556 10.7666 110.474 10.7256 110.392 10.7461C110.31 10.7461 110.228 10.8281 110.187 10.9717C110.187 11.0332 110.187 11.0537 110.207 11.0947C110.249 11.1152 110.269 11.1357 110.31 11.1562C110.351 11.1562 110.392 11.1768 110.433 11.1768ZM110.577 9.84375C110.638 9.76172 110.659 9.67969 110.638 9.61816C110.597 9.53613 110.556 9.49512 110.495 9.4541C110.413 9.43359 110.351 9.4541 110.31 9.49512C110.269 9.53613 110.249 9.61816 110.29 9.76172C110.31 9.84375 110.351 9.88477 110.413 9.90527C110.474 9.90527 110.536 9.88477 110.577 9.84375ZM110.843 8.63379C110.905 8.75684 110.987 8.79785 111.048 8.75684C111.13 8.69531 111.171 8.63379 111.212 8.51074C111.253 8.4082 111.253 8.30566 111.212 8.24414C111.171 8.16211 111.069 8.16211 110.925 8.22363C110.864 8.26465 110.823 8.32617 110.823 8.4082C110.823 8.49023 110.823 8.57227 110.843 8.63379ZM111.376 7.54688C111.52 7.21875 111.582 6.93164 111.561 6.68555C111.561 6.45996 111.499 6.33691 111.376 6.33691C111.274 6.33691 111.13 6.50098 110.987 6.84961C110.946 6.95215 110.925 7.0752 110.946 7.19824C110.966 7.32129 111.007 7.42383 111.069 7.50586C111.151 7.56738 111.253 7.58789 111.376 7.54688ZM87.0337 32.5049C87.1567 32.3613 87.2593 32.3203 87.3413 32.3613C87.4438 32.4023 87.5053 32.4844 87.5669 32.6279C87.6284 32.7715 87.6694 32.915 87.6899 33.0791C87.6899 33.2432 87.6899 33.3662 87.6489 33.4688C87.6079 33.5713 87.5464 33.5918 87.4438 33.5508C87.4233 33.5303 87.4028 33.5098 87.4233 33.4482C87.4233 33.3867 87.4233 33.3252 87.4438 33.2432C87.4643 33.1816 87.4643 33.1201 87.4848 33.0586C87.4848 33.0176 87.4848 32.9766 87.4643 32.9561C87.4233 32.9355 87.3823 32.9561 87.3208 32.9971C87.2182 33.0586 87.1772 33.1611 87.1772 33.2842C87.1772 33.4072 87.1977 33.5303 87.2387 33.6738C87.3208 33.9199 87.3413 34.1455 87.3003 34.3916C87.2593 34.5762 87.2182 34.6992 87.1772 34.7607C87.1362 34.8428 87.0747 34.8633 87.0337 34.8428C86.9927 34.8223 86.9516 34.8018 86.8901 34.7607C86.8696 34.7402 86.8286 34.6992 86.7876 34.6992C86.7671 34.6787 86.7261 34.6992 86.7055 34.7607C86.685 34.8018 86.6645 34.9043 86.644 35.0479C86.6235 35.2119 86.6645 35.3145 86.7466 35.376C86.8286 35.417 86.9106 35.458 87.0132 35.4785C87.1157 35.4785 87.1977 35.5195 87.2593 35.5605C87.3208 35.6016 87.3208 35.6836 87.2593 35.8271C87.0952 36.0322 86.9106 36.0732 86.7055 35.9707C86.521 35.8477 86.3774 35.6016 86.3159 35.2119C86.2544 34.8223 86.3569 34.3301 86.603 33.7354L86.7261 33.4893C86.7466 33.4072 86.7671 33.3457 86.7876 33.3047C86.7876 33.2637 86.7876 33.2227 86.7876 33.1816C86.7671 33.1201 86.7876 33.0381 86.8081 32.9355C86.8286 32.833 86.9106 32.6895 87.0337 32.5049ZM106.291 33.2637C106.208 33.2021 106.167 33.1406 106.188 33.0791C106.188 33.0176 106.229 32.9766 106.291 32.9561C106.352 32.9355 106.414 32.9355 106.475 32.9561C106.516 32.9971 106.537 33.0586 106.537 33.1816C106.516 33.2227 106.496 33.2637 106.434 33.2637C106.373 33.2842 106.332 33.2637 106.291 33.2637ZM87.7719 31.7666C87.8335 31.5 87.9155 31.3564 87.9975 31.3154C88.1001 31.2949 88.1411 31.377 88.1616 31.5615C88.1821 31.7256 88.1206 31.9922 87.9565 32.3203C87.895 32.4434 87.8335 32.4844 87.813 32.4844C87.7925 32.4639 87.7719 32.4229 87.7719 32.3408C87.7514 32.2383 87.7514 32.1562 87.7514 32.0537C87.7719 31.9512 87.7719 31.8691 87.7719 31.8076C87.7719 31.7871 87.7719 31.7666 87.7719 31.7666ZM87.4028 31.5615C87.5053 31.623 87.5464 31.6846 87.5464 31.7461C87.5669 31.8076 87.5259 31.8691 87.4848 31.9102C87.4233 31.9512 87.3823 31.9717 87.3208 31.9717C87.2593 31.9717 87.2387 31.9307 87.2182 31.8281C87.2182 31.7871 87.2387 31.7256 87.2593 31.6641C87.3003 31.623 87.3413 31.582 87.4028 31.5615ZM87.7925 30.7002C87.7925 30.8232 87.7514 30.9463 87.7104 31.0488C87.6489 31.1514 87.5874 31.2129 87.5259 31.2744C87.4438 31.3154 87.4028 31.3154 87.3618 31.2744C87.3413 31.2129 87.3413 31.1104 87.4028 30.9463C87.4233 30.8643 87.4438 30.8027 87.5053 30.7617C87.5464 30.7002 87.5874 30.6592 87.6489 30.6387C87.7104 30.6182 87.7514 30.6387 87.7925 30.7002ZM88.1616 30.3721C88.2231 30.2285 88.3052 30.1465 88.3667 30.126C88.4487 30.126 88.4897 30.1465 88.5307 30.208C88.5718 30.2695 88.5718 30.3516 88.5307 30.4336C88.5102 30.5156 88.4077 30.5771 88.2846 30.6387C88.2231 30.6387 88.1821 30.6387 88.1616 30.6182C88.1411 30.5771 88.1206 30.5361 88.1411 30.4951C88.1411 30.4541 88.1411 30.4131 88.1616 30.3721ZM88.8178 29.1416C88.8794 29.3672 88.8794 29.4902 88.7973 29.5107C88.7358 29.5107 88.6333 29.4697 88.5307 29.3467C88.4077 29.2236 88.3257 29.1006 88.2641 28.9365C88.2026 28.7725 88.2026 28.6289 88.2846 28.5264C88.3257 28.4443 88.3872 28.4443 88.4487 28.4854C88.4897 28.5264 88.5512 28.5879 88.6128 28.6904C88.6743 28.7725 88.7153 28.875 88.7563 28.957C88.7973 29.0596 88.8178 29.1211 88.8178 29.1416ZM89.187 27.2139C89.269 27.0908 89.3511 27.0498 89.3921 27.1318C89.4536 27.1934 89.4741 27.2959 89.4741 27.46C89.4741 27.624 89.4536 27.7881 89.3921 27.9316C89.3305 28.0752 89.228 28.1777 89.0844 28.1982C88.9614 28.2188 88.8999 28.1982 88.8794 28.1162C88.8794 28.0342 88.8794 27.9111 88.9204 27.7881C88.9614 27.665 89.0229 27.542 89.0639 27.4395C89.1255 27.3164 89.1665 27.2549 89.187 27.2139ZM89.6792 26.0859C89.7817 26.0654 89.8432 26.127 89.8432 26.25C89.8637 26.373 89.8432 26.4961 89.8022 26.6602C89.7612 26.8037 89.6792 26.9268 89.5971 26.9883C89.5151 27.0498 89.4331 27.0293 89.3305 26.9062C89.31 26.8447 89.31 26.7627 89.3511 26.6602C89.3921 26.5371 89.4536 26.4141 89.5151 26.3115C89.5766 26.1885 89.6382 26.127 89.6792 26.0859ZM90.1919 24.3428C90.2329 24.3223 90.2739 24.2812 90.2944 24.1992C90.3354 24.1172 90.3354 24.0146 90.3354 23.9121C90.3149 23.707 90.3559 23.6045 90.4175 23.584C90.479 23.5635 90.561 23.6045 90.643 23.707C90.7251 23.8096 90.7661 23.9531 90.8071 24.1582C90.8071 24.4248 90.7456 24.6094 90.6636 24.7119C90.561 24.7939 90.4585 24.835 90.3559 24.8145C90.2534 24.7939 90.1714 24.7324 90.1098 24.6504C90.0483 24.5684 90.0688 24.4658 90.1303 24.3633L90.1509 24.3428C90.1509 24.3428 90.1714 24.3428 90.1919 24.3428ZM90.0278 23.748C90.0278 23.8096 90.0278 23.8506 90.0073 23.8916C89.9868 23.9326 89.9458 23.9531 89.8843 23.9531C89.7612 23.9531 89.6792 23.9121 89.6382 23.8506C89.6177 23.7686 89.6177 23.707 89.6587 23.6455C89.6997 23.584 89.7612 23.543 89.8227 23.543C89.8843 23.543 89.9663 23.625 90.0278 23.748ZM109.1 22.3945C109.1 22.1484 109.141 22.0254 109.223 22.0049C109.305 21.9844 109.367 22.0459 109.449 22.1484C109.51 22.2715 109.551 22.3945 109.551 22.5381C109.531 22.6816 109.449 22.8047 109.285 22.8867C109.203 22.8252 109.162 22.7432 109.141 22.6611C109.121 22.5791 109.1 22.4971 109.1 22.3945ZM90.5405 23.2764C90.479 23.2148 90.4585 23.1533 90.438 23.0918C90.438 23.0303 90.4585 22.9688 90.4995 22.9277C90.5405 22.8867 90.5815 22.8047 90.6225 22.6816C90.6636 22.5586 90.6841 22.4355 90.7046 22.292L90.7251 21.7793L90.9096 22.3125C91.0737 22.7842 91.1147 23.1328 91.0327 23.3379C90.9712 23.543 90.7866 23.5225 90.5405 23.2764ZM91.1762 22.1074C91.0327 22.0049 90.9712 21.9023 90.9712 21.8203C90.9712 21.7178 91.0532 21.6562 91.1968 21.6562C91.2788 21.6357 91.3608 21.6562 91.4223 21.6973C91.4839 21.7178 91.5249 21.7588 91.5454 21.8203C91.5864 21.9434 91.5659 22.0459 91.4839 22.1074C91.4018 22.1689 91.2993 22.1895 91.1762 22.1074ZM111.458 12.9404C111.376 13.084 111.315 13.125 111.253 13.1045C111.171 13.0635 111.13 12.9814 111.11 12.8789C111.069 12.7559 111.089 12.6533 111.13 12.5303C111.171 12.4277 111.274 12.3867 111.417 12.3662C111.479 12.3867 111.52 12.4277 111.541 12.5098C111.541 12.5713 111.541 12.6533 111.52 12.7354C111.499 12.8379 111.479 12.8994 111.458 12.9404ZM111.848 11.1562C111.787 11.4844 111.705 11.7305 111.602 11.874C111.479 12.0176 111.397 12.0381 111.376 11.9561C111.335 11.8535 111.417 11.6279 111.582 11.2793C111.623 11.2178 111.643 11.1768 111.684 11.1357C111.725 11.0947 111.766 11.0742 111.848 11.0742V11.1562ZM112.156 10.1309C112.053 10.2539 111.951 10.2949 111.91 10.2949C111.848 10.2744 111.828 10.2334 111.828 10.1514C111.828 10.0898 111.848 10.0078 111.869 9.92578C111.91 9.84375 111.971 9.78223 112.033 9.74121C112.094 9.7002 112.176 9.7207 112.258 9.78223C112.299 9.82324 112.299 9.86426 112.299 9.90527C112.279 9.94629 112.258 9.9873 112.238 10.0283C112.217 10.0693 112.176 10.1104 112.156 10.1309ZM112.32 9.35156C112.238 9.43359 112.176 9.4541 112.135 9.43359C112.094 9.39258 112.094 9.33105 112.074 9.24902C112.074 9.16699 112.094 9.08496 112.115 9.00293C112.156 8.9209 112.176 8.87988 112.217 8.85938C112.279 8.83887 112.32 8.87988 112.381 8.98242C112.422 9.04395 112.422 9.10547 112.402 9.1875C112.381 9.24902 112.34 9.31055 112.32 9.35156ZM116.718 32.71C116.226 32.6689 115.59 32.4229 114.811 31.9717C114.442 31.7666 114.175 31.582 114.011 31.377C113.868 31.1719 113.724 30.9668 113.622 30.7412C113.519 30.4951 113.376 30.249 113.17 29.9414C112.904 29.5312 112.74 29.2031 112.699 28.916C112.658 28.6494 112.637 28.4238 112.637 28.1982C112.637 27.9932 112.637 27.7881 112.678 27.5625C112.842 26.4141 113.191 25.3887 113.724 24.4453C114.524 23.0508 115.549 21.9434 116.8 21.123C117.58 20.7129 118.42 20.5488 119.323 20.6104C119.794 20.6514 120.246 20.7949 120.635 21.082C120.881 21.2666 121.004 21.4512 121.045 21.6152C121.045 21.8408 121.045 22.0459 121.086 22.2305C121.086 22.4355 121.148 22.5586 121.271 22.5996C121.394 22.6816 121.435 22.7637 121.435 22.8867C121.435 23.0303 121.353 23.2354 121.169 23.502C121.025 23.707 120.943 23.8916 120.922 24.0352L121.004 24.0557C121.066 24.0762 121.21 23.9736 121.415 23.748C121.599 23.584 121.702 23.502 121.743 23.502C121.804 23.502 121.825 23.543 121.825 23.6455C121.825 24.2812 121.538 24.876 120.922 25.4502C119.794 26.5166 118.769 27.1523 117.908 27.3369C117.785 27.3574 117.682 27.3574 117.621 27.3574C117.498 27.3574 117.436 27.2959 117.395 27.2139C117.375 27.1113 117.252 27.0293 117.087 26.9678C117.005 26.9473 116.964 26.9062 116.964 26.8857C116.964 26.8447 117.005 26.8037 117.087 26.7832C117.169 26.7422 117.231 26.7217 117.272 26.7217C117.313 26.7012 117.354 26.6807 117.354 26.6807C117.559 26.5986 117.744 26.5371 117.887 26.5166C118.338 26.2705 118.831 25.9629 119.405 25.5527C120.184 25.0195 120.574 24.6504 120.574 24.4248V24.4043C120.43 24.4043 119.959 24.6914 119.179 25.2451C118.81 25.5117 118.544 25.6963 118.379 25.7783C117.518 26.1885 116.821 26.3936 116.308 26.3525L115.98 26.3115C115.693 26.291 115.549 26.5371 115.549 27.0498C115.549 27.0908 115.549 27.1318 115.57 27.1729C115.59 27.2139 115.59 27.2549 115.611 27.2959C115.631 27.3369 115.631 27.3779 115.631 27.3779C115.631 27.3984 115.611 27.4189 115.59 27.4189L115.488 27.3984C115.344 27.3779 115.262 27.4805 115.262 27.665C115.262 27.7676 115.283 27.8701 115.283 27.9932C115.303 28.0957 115.324 28.2393 115.324 28.3623C115.324 28.4854 115.303 28.5879 115.262 28.6699C115.242 28.752 115.221 28.8135 115.221 28.8545C115.221 28.9365 115.283 29.0391 115.447 29.1416L115.549 29.2031C115.816 29.3877 116.103 29.4902 116.452 29.5107C116.903 29.5312 117.436 29.4287 118.01 29.2031C119.056 28.793 120.061 28.2188 121.066 27.542C122.953 26.209 124.675 24.7529 126.234 23.1533C127.054 22.333 127.505 21.9434 127.587 21.9434C127.608 21.9434 127.608 21.9434 127.608 21.9639C127.608 22.0459 127.382 22.3535 126.931 22.8457C125.742 24.1992 125.106 24.958 125.024 25.1016L125.537 24.6504C126.213 24.0557 126.583 23.748 126.624 23.748C126.624 23.8916 126.295 24.3223 125.639 25.04C123.937 26.8447 122.153 28.3828 120.246 29.6748C120.143 29.7158 120.061 29.7979 119.959 29.9004C119.774 30.1055 119.589 30.2285 119.405 30.29C119.056 30.3311 118.544 30.5977 117.846 31.0898C117.498 31.3154 117.334 31.5 117.293 31.6641C117.293 31.7256 117.313 31.7461 117.354 31.7461C117.395 31.7666 117.457 31.7461 117.498 31.7256C117.559 31.7051 117.621 31.6846 117.662 31.6641C117.703 31.6436 117.723 31.623 117.744 31.623C119.487 30.7002 121.169 29.6133 122.809 28.3418C122.953 28.2188 123.055 28.1572 123.096 28.1777C123.096 28.2393 123.014 28.3418 122.871 28.5059C122.44 28.9775 122.194 29.2236 122.091 29.2646C121.948 29.3877 121.825 29.4902 121.722 29.5518C121.62 29.6338 121.476 29.7773 121.292 30.0029C121.086 30.2285 120.799 30.4951 120.41 30.8027C119.753 31.3154 119.241 31.6846 118.892 31.9102C118.113 32.4023 117.58 32.6689 117.272 32.6895C116.964 32.71 116.78 32.71 116.718 32.71ZM116.677 24.8145C117.19 24.8555 117.805 24.6299 118.523 24.1787C119.097 23.7891 119.364 23.4404 119.364 23.1328C119.364 22.9688 119.241 22.8662 119.015 22.8662C118.585 22.8252 118.072 23.0303 117.498 23.4609C117.087 23.7686 116.78 24.0762 116.575 24.3838C116.493 24.4863 116.452 24.5889 116.452 24.6504C116.452 24.7529 116.534 24.7939 116.677 24.8145ZM115.878 27.1729C115.754 27.1729 115.713 27.1523 115.713 27.1318C115.713 27.0908 115.734 27.0293 115.816 26.9678C115.898 26.9268 115.96 26.8652 116.042 26.8447C116.226 26.8242 116.37 26.8242 116.472 26.8242C116.616 26.8447 116.698 26.8652 116.698 26.9473C116.698 26.9883 116.636 27.0498 116.493 27.1113C116.349 27.1729 116.144 27.1934 115.878 27.1729ZM133.688 34.125C133.565 34.125 133.442 34.1045 133.298 34.084C132.663 33.8789 132.171 33.5713 131.801 33.1816C131.412 32.792 131.084 32.2793 130.776 31.6641C130.653 31.3975 130.591 31.1514 130.571 30.9463C130.55 30.7617 130.509 30.5566 130.407 30.3721C130.325 30.2695 130.284 30.208 130.243 30.208C130.222 30.1875 130.202 30.1875 130.202 30.167C130.202 30.167 130.202 30.1465 130.202 30.126C130.202 30.1055 130.222 30.0439 130.284 29.9414L130.304 29.8594C130.304 29.7979 130.284 29.7568 130.263 29.7568C130.058 29.7568 129.751 30.0645 129.34 30.6592C129.115 31.0283 128.807 31.3359 128.397 31.5615C128.069 31.7461 127.741 31.8281 127.413 31.8281C127.023 31.8281 126.674 31.6846 126.367 31.3975C126.141 31.2129 125.895 30.9873 125.608 30.7002C125.136 30.0439 124.89 29.2031 124.89 28.1982C124.89 27.7881 124.993 27.0088 125.218 25.8809C125.321 25.3066 125.423 24.7119 125.506 24.0967C125.649 22.7227 125.998 22.0459 126.572 22.0459C126.839 22.0459 127.208 22.1895 127.638 22.4561C128.151 22.8047 128.397 23.1738 128.397 23.584C128.397 23.8096 128.356 24.0967 128.274 24.4043C128.233 24.5684 128.192 24.7529 128.172 24.958L127.966 25.6963C127.843 26.0244 127.782 26.25 127.782 26.3525C127.782 26.4346 127.802 26.4756 127.843 26.4961C127.884 26.5166 127.946 26.5166 128.048 26.5166L128.069 26.5576L128.048 26.6602C127.987 26.7627 127.905 26.8037 127.843 26.8037C127.782 26.8037 127.741 26.8447 127.7 26.9062C127.679 26.9678 127.638 27.1523 127.577 27.46C127.556 27.583 127.515 27.665 127.495 27.7266C127.454 27.7881 127.433 27.8496 127.433 27.8906C127.433 27.9316 127.474 27.9727 127.536 28.0342C127.597 28.0957 127.618 28.1777 127.618 28.2598C127.618 28.3213 127.597 28.3623 127.536 28.3623C127.515 28.3623 127.474 28.3418 127.413 28.3213L127.454 28.4033C127.474 28.4443 127.536 28.4854 127.638 28.4854C127.823 28.4854 127.987 28.3008 128.172 27.9521C128.233 27.8496 128.295 27.7881 128.377 27.7266C129.402 26.7627 130.284 25.1836 131.063 23.0303C131.35 22.3125 131.678 21.9639 132.068 21.9639C132.355 21.9639 132.704 22.0869 133.134 22.333C133.442 22.5176 133.606 22.7021 133.606 22.9072C133.606 22.9277 133.606 22.9893 133.586 23.0508C133.565 23.1328 133.524 23.2148 133.483 23.2969C133.422 23.3789 133.401 23.4404 133.401 23.4814V23.543C133.401 23.5635 133.483 23.584 133.668 23.6045C133.852 23.625 133.934 23.6865 133.934 23.8096C133.934 23.9326 133.852 24.1582 133.688 24.4453C133.401 24.8965 133.196 25.4912 133.073 26.2705C133.032 26.5781 132.97 26.8037 132.868 26.9268C132.786 27.0498 132.704 27.542 132.622 28.3828C132.56 29.2236 132.519 29.7979 132.519 30.1465C132.519 30.3721 132.54 30.5156 132.581 30.5771C132.622 30.6387 132.642 30.7002 132.663 30.7822C132.663 30.8643 132.663 30.9463 132.642 31.0078C132.622 31.0693 132.622 31.1309 132.622 31.1924C132.622 31.541 132.745 31.7256 132.991 31.7256C133.175 31.6436 133.401 31.459 133.709 31.1924C134.529 30.4541 135.001 29.9209 135.144 29.6133C135.431 29.1416 135.78 28.6904 136.17 28.2598C136.559 27.8291 136.908 27.3369 137.256 26.8242L137.523 26.3936C137.708 26.1475 137.851 25.9014 137.954 25.6348C138.036 25.4912 138.241 25.1836 138.589 24.7324C138.795 24.4658 138.959 24.2197 139.082 24.0146C140.579 21.9023 141.42 19.8516 141.604 17.8623C141.604 17.5957 141.625 17.3906 141.686 17.2061C141.727 17.2061 141.789 17.2676 141.85 17.3906C141.912 17.5342 141.994 17.7188 142.096 17.9648C142.363 19.0312 142.342 20.1182 142.035 21.2051C141.912 21.4922 141.85 21.6973 141.85 21.7793C141.85 21.8203 141.871 21.8408 141.891 21.8408C141.912 21.8613 141.932 21.8613 141.953 21.8613C141.973 21.8818 141.994 21.8818 142.014 21.8818C142.035 21.9023 142.035 21.9023 142.035 21.9229L141.748 22.4355C141.256 23.1943 140.804 23.9736 140.374 24.7939C139.615 26.1885 138.733 27.6445 137.708 29.1416C137.092 30.0439 136.231 31.1514 135.124 32.4434C135.021 32.5459 134.939 32.6484 134.857 32.7715C134.673 32.9971 134.59 33.1406 134.59 33.2021C134.59 33.2227 134.611 33.2432 134.631 33.2432C134.652 33.2432 134.755 33.1816 134.919 33.0586C135.103 32.9355 135.185 32.8535 135.206 32.8535C136.805 31.3359 137.913 29.9004 138.569 28.5469C138.569 28.5059 138.672 28.3828 138.877 28.1367C139 27.9727 139.205 27.583 139.512 26.9678C140.722 24.5889 141.502 23.2969 141.83 23.0713C141.83 23.2764 141.645 23.707 141.297 24.3633L140.989 24.999C140.804 25.4502 140.517 26.0244 140.128 26.7217C139.738 27.4189 139.389 27.9521 139.123 28.3213C139.041 28.4238 139 28.5264 138.979 28.6699C138.979 28.875 138.466 29.6133 137.441 30.8848C137.133 31.2744 136.908 31.541 136.785 31.7256C136.744 31.7871 136.723 31.8281 136.703 31.8896C136.682 32.0742 136.354 32.4639 135.759 33.0996C134.98 33.7764 134.283 34.125 133.688 34.125ZM128.274 30.9873C128.377 30.9873 128.705 30.7207 129.258 30.167C129.874 29.5518 130.243 29.0596 130.386 28.7109C130.386 28.6084 130.366 28.5674 130.304 28.5469C130.202 28.5469 129.976 28.7725 129.628 29.2441C129.587 29.3057 129.484 29.4082 129.34 29.5928C129.176 29.7773 129.012 29.9824 128.848 30.1875C128.684 30.3926 128.541 30.5771 128.438 30.7207C128.315 30.8643 128.254 30.9463 128.233 30.9668C128.233 30.9873 128.254 30.9873 128.274 30.9873ZM141.563 22.9893L141.543 22.9482C141.543 22.8252 141.604 22.6611 141.748 22.4971V22.4766C141.83 22.374 141.891 22.333 141.912 22.333C141.932 22.333 141.953 22.3535 141.953 22.3945C141.953 22.4355 141.932 22.4971 141.912 22.5996C141.891 22.6816 141.83 22.7637 141.768 22.8662C141.707 22.9482 141.645 22.9893 141.563 22.9893ZM144.567 33.4688C144.362 33.4893 144.136 33.4893 143.931 33.4893C143.439 33.5098 143.193 33.4688 143.193 33.4072C143.193 33.3867 143.419 33.3047 143.87 33.2021L144.259 33.1201C144.383 33.1201 144.629 33.0586 144.998 32.9561C145.757 32.7305 146.228 32.5664 146.413 32.4434C146.474 32.3818 146.577 32.3203 146.761 32.2383C146.926 32.2383 147.254 32.0537 147.725 31.7051C147.951 31.541 148.074 31.418 148.094 31.3154C148.094 31.2949 148.074 31.2744 148.033 31.2744C147.951 31.2744 147.541 31.4795 146.782 31.8486C145.675 32.4434 144.67 32.792 143.726 32.8945C142.783 32.9766 141.942 32.7715 141.183 32.2793C140.671 31.9307 140.404 31.377 140.384 30.6182C140.384 30.4746 140.425 30.3926 140.466 30.3926C140.507 30.3926 140.609 30.4336 140.732 30.5566C140.753 30.5771 140.794 30.5977 140.835 30.5977L141.306 30.9873C141.799 31.2744 142.393 31.3975 143.029 31.3359C143.665 31.2744 144.218 31.1309 144.69 30.9053C145.551 30.5771 146.29 30.167 146.905 29.6748C147.213 29.4492 147.356 29.2646 147.377 29.1416C147.377 29.0801 147.356 29.0186 147.315 28.9365C147.213 28.7725 147.069 28.6699 146.926 28.6699C146.761 28.6494 146.597 28.5674 146.433 28.4033C146.228 28.2598 146.064 28.1982 145.962 28.2188C145.531 28.1777 144.854 27.9316 143.952 27.4395C143.521 27.2344 143.275 27.0703 143.193 26.9062C143.111 26.7627 143.05 26.5576 142.967 26.2705C142.762 25.4912 142.701 24.8145 142.762 24.2402C142.783 24.0146 142.844 23.748 142.967 23.3994C143.706 22.415 144.608 21.5127 145.675 20.6924C146.741 19.8516 147.828 19.3799 148.956 19.2773H149.017C149.735 19.3799 150.248 19.708 150.555 20.2617C150.966 21 151.13 21.7998 151.048 22.7021C151.007 22.9893 150.904 23.1328 150.719 23.1533C150.555 23.1738 150.35 23.1123 150.104 22.9893C149.735 22.8252 149.304 22.7432 148.833 22.7432C147.397 22.8867 146.249 23.6865 145.346 25.1426C145.346 25.2451 145.305 25.3066 145.244 25.3271C145.182 25.3682 145.141 25.4092 145.141 25.4502C145.121 25.5938 145.408 25.7578 146.003 25.9424C146.331 26.0449 146.515 26.1064 146.515 26.1064C146.536 26.127 146.556 26.127 146.577 26.127C147.233 26.332 147.91 26.6191 148.607 27.0088C149.407 27.4805 149.838 28.2188 149.899 29.2441V29.7773C149.838 30.3516 149.715 30.7617 149.509 30.9873C149.448 31.0488 149.284 31.2129 148.997 31.4795C148.976 31.4795 148.976 31.5 148.976 31.5C148.73 31.7256 148.546 31.8486 148.423 31.8896C148.32 31.9307 148.238 31.9922 148.197 32.0742C148.115 32.1768 147.807 32.3613 147.274 32.6484C146.351 33.1201 145.449 33.3867 144.567 33.4688ZM149.551 21.5537C149.612 21.4922 149.653 21.4512 149.674 21.3896C149.674 21.3076 149.551 21.2051 149.304 21.1436C149.058 21.082 148.812 21.0615 148.566 21.082C148.361 21.1025 148.176 21.1436 147.971 21.2256C147.438 21.4512 147.11 21.6357 147.028 21.7998L147.438 21.6973C147.971 21.5127 148.341 21.4102 148.525 21.3896C148.73 21.3691 149.058 21.4307 149.551 21.5537Z" fill="black"/>
</svg>
