<svg width="16" height="16" viewBox="0 0 16 16" fill="none" xmlns="http://www.w3.org/2000/svg">
<path d="M7.15667 0C7.44477 0.0425658 7.73287 0.0720344 8.01769 0.124423C9.40254 0.386366 10.5877 1.0314 11.5764 2.03333C12.4734 2.94686 13.0693 4.03065 13.3214 5.28798C13.6422 6.86946 13.4196 8.37563 12.6273 9.78358C12.3719 10.2354 12.0544 10.648 11.7532 11.0933C11.763 11.1031 11.7957 11.1424 11.8317 11.1752C13.1413 12.4652 14.4508 13.7553 15.7604 15.0421C16.0452 15.3204 16.0779 15.6184 15.8488 15.8476C15.6229 16.0735 15.3151 16.0473 15.0369 15.7755C13.7208 14.4789 12.4014 13.1823 11.0853 11.8857C11.0493 11.8497 11.01 11.8169 10.9707 11.7809C10.7579 11.925 10.5582 12.0723 10.3487 12.2066C9.17009 12.9498 7.88019 13.2969 6.49207 13.2445C4.66198 13.1757 3.10362 12.4718 1.83009 11.1555C0.874122 10.1634 0.294648 8.98138 0.0785727 7.61927C0.0458341 7.43264 0.0261909 7.24928 0 7.06264C0 6.77123 0 6.47982 0 6.18841C0.00982159 6.14257 0.022917 6.1 0.0294648 6.05416C0.0687511 5.79222 0.0916682 5.527 0.147324 5.26833C0.409233 4.03065 0.988707 2.95668 1.87265 2.05298C2.86463 1.03795 4.05632 0.389641 5.45426 0.124423C5.72926 0.0720344 6.00754 0.0425658 6.28254 0C6.57392 0 6.86529 0 7.15667 0ZM1.03454 6.59115C1.04764 6.82362 1.04764 7.0168 1.07055 7.20671C1.2146 8.42148 1.67949 9.49544 2.52415 10.3861C3.99411 11.9282 5.80456 12.5078 7.87692 12.1051C9.70046 11.7514 11.0624 10.7004 11.871 9.01412C12.6862 7.31149 12.6371 5.59249 11.7237 3.94879C10.7907 2.26253 9.31414 1.30317 7.40221 1.06742C5.89295 0.880784 4.50484 1.25078 3.28696 2.17085C1.81699 3.28739 1.08365 4.79029 1.03454 6.59115Z" fill="white"/>
</svg>
