<svg width="26" height="22" viewBox="0 0 26 22" fill="none" xmlns="http://www.w3.org/2000/svg">
<path d="M25.2843 2.70169C24.4791 3.03132 23.5128 3.36095 22.7076 3.52577C23.1907 3.52577 23.6739 2.70169 23.996 2.37206C24.3181 1.87762 24.6402 1.38317 24.8012 0.723916V0.559102H24.6402C23.6739 1.05355 22.7076 1.54799 21.5803 1.7128C21.4192 1.7128 21.4192 1.7128 21.4192 1.7128C21.2582 1.54799 21.2582 1.54799 21.0971 1.38318C20.614 1.05355 20.1308 0.723916 19.6477 0.394287C19.0035 0.0646574 18.1983 -0.100157 17.3931 0.0646577C16.5878 0.0646577 15.9436 0.394286 15.2994 0.723916C14.6553 1.05355 14.0111 1.54799 13.5279 2.20725C13.0448 2.86651 12.7227 3.52577 12.5617 4.34984C12.4006 5.17391 12.4006 5.83317 12.5617 6.65725C12.5617 6.82206 12.5616 6.82206 12.4006 6.82206C8.21338 6.1628 4.67035 4.67947 1.77151 1.38318C1.61047 1.21836 1.61047 1.21836 1.44942 1.38318C0.161049 3.36095 0.805234 6.32762 2.4157 7.81095C2.57675 7.97576 2.89884 8.14058 3.05989 8.47021C2.89884 8.47021 1.93256 8.30539 0.966278 7.81095C0.805231 7.81095 0.805234 7.81095 0.805234 7.97576C0.805234 8.14058 0.805234 8.30539 0.805234 8.63502C0.966281 10.6128 2.4157 12.4258 4.18721 13.085C4.34826 13.2498 4.67036 13.2498 4.8314 13.2498C4.34826 13.4146 4.02617 13.4146 2.89885 13.2498C2.7378 13.2498 2.73779 13.2498 2.73779 13.4147C3.54302 15.8869 5.4756 16.5461 6.92502 17.0406C7.08606 17.0406 7.2471 17.0406 7.56919 17.0406C7.08605 17.6998 5.47559 18.3591 4.67036 18.5239C3.22094 19.0184 1.77151 19.1832 0.322089 19.0184C0.161042 19.0184 0 19.0184 0 19.0184V19.1832C0.322094 19.348 0.644185 19.5128 0.966278 19.6776C1.93256 20.1721 2.89884 20.6665 3.86513 20.8313C9.17967 22.3146 14.9774 21.1609 19.0035 17.2054C22.0634 14.0739 23.1907 9.78873 23.1907 5.33873C23.1907 5.17391 23.3518 5.0091 23.5128 5.0091C24.3181 4.34984 24.9623 3.69058 25.6064 2.86651C25.2843 3.03132 25.2843 2.86651 25.2843 2.70169Z" fill="white"/>
</svg>
